<svg width="29" height="29" viewBox="0 0 29 29" fill="none" xmlns="http://www.w3.org/2000/svg">
<rect width="29" height="29" rx="8" fill="#DC6DFF"/>
<path d="M4 20.0436L4.93133 19.1122L7.38644 21.5674L6.45511 22.4987L4 20.0436Z" fill="white"/>
<path d="M10.641 15.27L19.911 6H18.0437L9.7074 14.3363L10.641 15.27Z" fill="white"/>
<path d="M12.7164 18.5211L10.3447 16.1535L7.97722 13.786L7.04346 14.7155L11.7827 19.4547L12.7164 18.5211Z" fill="white"/>
<path d="M19.3417 20.2965L21.7968 17.8414L22.4806 18.5252L20.0255 20.9804L19.3417 20.2965Z" fill="white"/>
<path d="M18.3304 19.2871L20.7856 16.832L21.207 17.2534L18.7519 19.7086L18.3304 19.2871Z" fill="white"/>
<path d="M14.5905 15.5448L17.0489 13.0871L18.2954 14.334L15.837 16.7917L14.5905 15.5448Z" fill="white"/>
<path d="M13.4124 9.45553L9.95694 6.00006H7.50183V8.45517L10.9532 11.9104L13.4124 9.45553Z" fill="white"/>
<path d="M12.1621 16.7914L20.4984 8.45512V6.58765L11.2284 15.8576L12.1621 16.7914Z" fill="white"/>
<path d="M20.6135 21.5694L23.0686 19.1143L24 20.0456L21.5449 22.5007L20.6135 21.5694Z" fill="white"/>
<path d="M15.2887 18.5216L20.0272 13.7814L20.9587 14.7126L16.2202 19.4527L15.2887 18.5216Z" fill="white"/>
<path d="M6.79492 17.2516L7.21639 16.8301L9.6715 19.2853L9.25003 19.7067L6.79492 17.2516Z" fill="white"/>
<path d="M5.521 18.5216L6.20481 17.8378L8.65992 20.2929L7.97611 20.9768L5.521 18.5216Z" fill="white"/>
</svg>
