<svg width="57" height="57" viewBox="0 0 57 57" fill="none" xmlns="http://www.w3.org/2000/svg">
<circle opacity="0.2" cx="28.5" cy="28.5" r="28.5" fill="#606895"/>
<path d="M12.4067 38.9273L13.9239 37.4102L17.9233 41.4096L16.4062 42.9268L12.4067 38.9273Z" fill="#606895"/>
<path d="M23.225 31.151L38.326 16.05H35.2841L21.7041 29.6301L23.225 31.151Z" fill="#606895"/>
<path d="M26.6061 36.4472L22.7425 32.5903L18.8859 28.7336L17.3647 30.2477L25.085 37.968L26.6061 36.4472Z" fill="#606895"/>
<path d="M37.3987 39.3394L41.3981 35.3399L42.512 36.4539L38.5126 40.4533L37.3987 39.3394Z" fill="#606895"/>
<path d="M35.7515 37.695L39.7509 33.6956L40.4375 34.3822L36.438 38.3816L35.7515 37.695Z" fill="#606895"/>
<path d="M29.6589 31.5988L33.6638 27.5951L35.6944 29.6264L31.6896 33.6301L29.6589 31.5988Z" fill="#606895"/>
<path d="M27.7398 21.6792L22.1108 16.0501H18.1113V20.0496L23.7337 25.6783L27.7398 21.6792Z" fill="#606895"/>
<path d="M25.7028 33.6295L39.2829 20.0495V17.0074L24.1819 32.1083L25.7028 33.6295Z" fill="#606895"/>
<path d="M39.4707 41.4129L43.4701 37.4134L44.9873 38.9306L40.9879 42.93L39.4707 41.4129Z" fill="#606895"/>
<path d="M30.7961 36.448L38.5153 28.7262L40.0328 30.243L32.3136 37.9649L30.7961 36.448Z" fill="#606895"/>
<path d="M16.9597 34.3792L17.6463 33.6926L21.6457 37.6921L20.9591 38.3786L16.9597 34.3792Z" fill="#606895"/>
<path d="M14.8845 36.4481L15.9985 35.3341L19.9979 39.3335L18.884 40.4475L14.8845 36.4481Z" fill="#606895"/>
</svg>
