<svg width="29" height="29" viewBox="0 0 29 29" fill="none" xmlns="http://www.w3.org/2000/svg">
<rect width="29" height="29" rx="8" fill="#DC6DFF"/>
<path d="M26 15C26 21.0758 21.0758 26 15 26C8.92422 26 4 21.0758 4 15C4 8.92422 8.92422 4 15 4C21.0758 4 26 8.92422 26 15ZM6.22062 16.6801L7.58402 16.9551C7.92176 17.0238 8.27152 16.9164 8.51602 16.6715L9.17773 16.0098C9.67188 15.477 10.5141 15.6488 10.8277 16.2805L11.2273 17.0754C11.3949 17.4879 11.8547 17.7113 12.3145 17.7113C12.9676 17.7113 13.4359 17.1227 13.2469 16.4953L12.9934 15.6402C12.7914 14.9785 13.2898 14.3125 13.9816 14.3125H14.0805C14.6176 14.3125 15.1934 14.0246 15.5113 13.5477L15.9711 12.8559C16.2117 12.4949 16.1988 12.018 15.9367 11.6656L15.2449 10.7418C14.8023 10.1531 15.1031 9.30234 15.8207 9.12187L16.5512 8.90273C16.8734 8.85977 17.1355 8.63203 17.2602 8.32266L17.9605 6.5648C17.0367 6.23953 16.0398 6.0625 14.9613 6.0625C10.0629 6.0625 6.02383 10.0629 6.02383 15C6.02383 15.5758 6.11664 16.1387 6.22062 16.6801ZM23.3531 16.9078L22.6742 17.1012C22.3863 17.1785 22.0813 17.0625 21.9223 16.8133L21.8363 16.6801C21.5785 16.2762 21.1316 15.9926 20.6504 15.9926C20.1734 15.9926 19.6879 16.2762 19.4645 16.6801L19.2023 17.0883C19.1422 17.1828 19.0605 17.2645 18.9617 17.2816L17.3676 18.184C16.6285 18.618 16.3105 19.5762 16.6371 20.3883L16.9121 20.9211C17.2816 21.7461 18.2312 22.1457 19.0434 21.8277L19.1895 21.7504C19.6234 21.6258 20.1047 21.6945 20.4785 21.9652L20.543 22.0125C22.1414 20.7449 23.2973 18.9445 23.7398 16.8777C23.6109 16.8648 23.482 16.8734 23.3531 16.9078ZM10.7074 19.791L12.0824 20.1348C12.452 20.2293 12.8258 20.0059 12.916 19.6363C13.0105 19.2668 12.7871 18.893 12.4176 18.8027L11.0426 18.459C10.673 18.3645 10.2992 18.5879 10.209 18.9574C10.1145 19.327 10.3379 19.7008 10.7074 19.791ZM14.1621 18.098C14.0676 18.4676 14.291 18.8414 14.6605 18.9316C15.0301 19.0262 15.4039 18.8027 15.4941 18.4332L15.8379 17.0582C15.9324 16.6887 15.709 16.3148 15.3395 16.2246C14.9699 16.1301 14.5961 16.3535 14.5059 16.723L14.1621 18.098ZM17.823 9.19063L17.1355 10.5656C16.9637 10.9051 17.1012 11.3219 17.4406 11.4895C17.7801 11.6613 18.1969 11.5238 18.3645 11.1844L19.052 9.80937C19.2238 9.46992 19.0863 9.05312 18.7469 8.88555C18.4074 8.71367 17.9906 8.85117 17.823 9.19063Z" fill="white"/>
</svg>
