<?xml version="1.0" encoding="utf-8"?>
<!-- Generator: Adobe Illustrator 23.1.0, SVG Export Plug-In . SVG Version: 6.00 Build 0)  -->
<svg version="1.1" id="Слой_1" xmlns="http://www.w3.org/2000/svg" xmlns:xlink="http://www.w3.org/1999/xlink" x="0px" y="0px"
	 viewBox="0 0 124 43" style="enable-background:new 0 0 124 43;" xml:space="preserve">
<style type="text/css">
	.st0{fill:#FFFFFF;}
	.st1{fill:#DC6DFF;}
</style>
<path class="st0" d="M2,12C2,6.5,6.5,2,12,2h100c5.5,0,10,4.5,10,10v19c0,5.5-4.5,10-10,10H12C6.5,41,2,36.5,2,31V12z"/>
<path class="st1" d="M15,7h13c4.4,0,8,3.6,8,8v13c0,4.4-3.6,8-8,8H15c-4.4,0-8-3.6-8-8V15C7,10.6,10.6,7,15,7z"/>
<path class="st0" d="M33,22c0,6.1-4.9,11-11,11s-11-4.9-11-11s4.9-11,11-11S33,15.9,33,22z M13.2,23.7l1.4,0.3
	c0.3,0.1,0.7,0,0.9-0.3l0.7-0.7c0.5-0.5,1.3-0.4,1.6,0.3l0.4,0.8c0.2,0.4,0.6,0.6,1.1,0.6c0.7,0,1.1-0.6,0.9-1.2L20,22.6
	c-0.2-0.7,0.3-1.3,1-1.3h0.1c0.5,0,1.1-0.3,1.4-0.8l0.5-0.7c0.2-0.4,0.2-0.8,0-1.2l-0.7-0.9c-0.4-0.6-0.1-1.4,0.6-1.6l0.7-0.2
	c0.3,0,0.6-0.3,0.7-0.6l0.7-1.8c-0.9-0.3-1.9-0.5-3-0.5c-4.9,0-8.9,4-8.9,8.9C13,22.6,13.1,23.1,13.2,23.7z M30.4,23.9l-0.7,0.2
	c-0.3,0.1-0.6,0-0.8-0.3l-0.1-0.1c-0.3-0.4-0.7-0.7-1.2-0.7c-0.5,0-1,0.3-1.2,0.7l-0.3,0.4c-0.1,0.1-0.1,0.2-0.2,0.2l-1.6,0.9
	c-0.7,0.4-1.1,1.4-0.7,2.2l0.3,0.5c0.4,0.8,1.3,1.2,2.1,0.9l0.1-0.1c0.4-0.1,0.9-0.1,1.3,0.2l0.1,0c1.6-1.3,2.8-3.1,3.2-5.1
	C30.6,23.9,30.5,23.9,30.4,23.9z M17.7,26.8l1.4,0.3c0.4,0.1,0.7-0.1,0.8-0.5c0.1-0.4-0.1-0.7-0.5-0.8L18,25.5
	c-0.4-0.1-0.7,0.1-0.8,0.5C17.1,26.3,17.3,26.7,17.7,26.8z M21.2,25.1c-0.1,0.4,0.1,0.7,0.5,0.8c0.4,0.1,0.7-0.1,0.8-0.5l0.3-1.4
	c0.1-0.4-0.1-0.7-0.5-0.8c-0.4-0.1-0.7,0.1-0.8,0.5L21.2,25.1z M24.8,16.2l-0.7,1.4c-0.2,0.3,0,0.8,0.3,0.9c0.3,0.2,0.8,0,0.9-0.3
	l0.7-1.4c0.2-0.3,0-0.8-0.3-0.9C25.4,15.7,25,15.9,24.8,16.2z"/>
<path class="st1" d="M53.6,14.2h2.3l2.5,13.3h-2L56,25.1h-2.4l-0.4,2.4h-2.1L53.6,14.2z M55.8,23.6l-0.9-6.6h-0.1l-0.9,6.6H55.8z
	 M61.6,27.6c-0.1,0-0.3,0-0.4,0c-0.2,0-0.3-0.1-0.5-0.2c-0.2-0.1-0.3-0.2-0.5-0.4c-0.2-0.2-0.3-0.4-0.4-0.7
	c-0.1-0.3-0.2-0.7-0.3-1.1c-0.1-0.4-0.1-0.9-0.1-1.6v-3.4c0-0.6,0-1.1,0.1-1.5c0.1-0.4,0.2-0.8,0.3-1c0.1-0.3,0.3-0.5,0.5-0.6
	c0.2-0.2,0.4-0.3,0.5-0.3c0.2-0.1,0.3-0.1,0.5-0.1c0.2,0,0.3,0,0.4,0c0.2,0,0.4,0,0.5,0.1c0.2,0.1,0.3,0.1,0.5,0.2
	c0.1,0.1,0.3,0.2,0.4,0.3c0.1,0.1,0.2,0.2,0.3,0.3l0,0l-0.1-1.4v-2.9h2v14.2h-1.5l-0.2-1c-0.1,0.1-0.2,0.3-0.3,0.4
	c-0.1,0.1-0.3,0.3-0.4,0.4c-0.2,0.1-0.3,0.2-0.5,0.3C62.1,27.6,61.9,27.6,61.6,27.6z M62.3,26.1c0.1,0,0.2,0,0.3-0.1
	c0.1,0,0.2-0.1,0.3-0.2c0.1-0.1,0.2-0.2,0.2-0.3c0.1-0.1,0.1-0.2,0.2-0.3v-6.5c-0.1-0.2-0.2-0.4-0.4-0.6c-0.2-0.2-0.4-0.2-0.6-0.2
	c-0.1,0-0.3,0-0.4,0.1c-0.1,0.1-0.2,0.2-0.3,0.3c-0.1,0.1-0.2,0.3-0.2,0.6c0,0.3-0.1,0.6-0.1,1v4.1c0,0.4,0,0.7,0.1,1
	c0.1,0.3,0.1,0.5,0.2,0.6c0.1,0.1,0.2,0.2,0.3,0.3C62,26.1,62.2,26.1,62.3,26.1z M66.4,16.7h2l1,5.7l0.3,2.3h0.1l0.3-2.3l1-5.7H73
	l-2.5,10.8h-1.7L66.4,16.7z M76.7,27.6c-0.5,0-0.9-0.1-1.2-0.3c-0.4-0.2-0.7-0.4-0.9-0.8c-0.2-0.4-0.4-0.8-0.6-1.4
	c-0.1-0.6-0.2-1.3-0.2-2.1v-2c0-0.7,0-1.3,0.1-1.8c0.1-0.5,0.2-0.9,0.4-1.2c0.2-0.3,0.4-0.6,0.6-0.8c0.2-0.2,0.4-0.3,0.7-0.4
	c0.2-0.1,0.5-0.2,0.7-0.2c0.2,0,0.4,0,0.6,0c0.4,0,0.7,0.1,1,0.2c0.3,0.1,0.6,0.3,0.9,0.5c0.3,0.3,0.4,0.6,0.6,1
	c0.2,0.4,0.2,1,0.2,1.6c0,0.2,0,0.4,0,0.7c0,0.2,0,0.4,0,0.7c0,0.2,0,0.4-0.1,0.6c0,0.2-0.1,0.4-0.1,0.6h-3.6v1.1
	c0,0.5,0,0.9,0.1,1.2c0,0.3,0.1,0.6,0.2,0.8c0.1,0.2,0.2,0.3,0.4,0.4c0.2,0.1,0.3,0.1,0.6,0.1c0.1,0,0.2,0,0.4-0.1
	c0.1-0.1,0.2-0.1,0.3-0.3c0.1-0.1,0.2-0.3,0.2-0.5c0.1-0.2,0.1-0.4,0.1-0.7v-0.3h1.6v0.4c0,1-0.2,1.8-0.7,2.2
	C78.3,27.4,77.6,27.6,76.7,27.6z M77.8,21.2c0-0.1,0-0.1,0-0.2c0-0.1,0-0.2,0-0.3c0-0.1,0-0.2,0-0.3c0-0.1,0-0.2,0-0.3
	c0-0.7-0.1-1.2-0.3-1.5c-0.2-0.3-0.4-0.5-0.7-0.5c-0.2,0-0.3,0-0.5,0.1c-0.1,0.1-0.2,0.2-0.3,0.4c-0.1,0.2-0.1,0.4-0.2,0.8
	c0,0.3-0.1,0.7-0.1,1.2v0.7H77.8z M81.3,16.7h1.5l0.2,1.1v0c0.2-0.2,0.3-0.4,0.5-0.6c0.2-0.2,0.4-0.3,0.6-0.4
	c0.2-0.1,0.4-0.2,0.6-0.2c0.2,0,0.4-0.1,0.6-0.1c0.6,0,1.1,0.2,1.5,0.7c0.3,0.4,0.5,1.1,0.5,2v8.2h-2v-8.2c0-0.5-0.1-0.8-0.2-1
	c-0.1-0.2-0.4-0.3-0.6-0.3c-0.2,0-0.4,0.1-0.6,0.2c-0.2,0.1-0.4,0.3-0.5,0.5v8.7h-2V16.7z M89.5,18.1h-0.8v-1.4h1l0.4-2.8h1.4v2.8
	h1.7v1.4h-1.7V25c0,0.2,0,0.4,0.1,0.6c0,0.1,0.1,0.3,0.2,0.3c0.1,0.1,0.2,0.1,0.3,0.2c0.1,0,0.2,0,0.3,0c0.2,0,0.4,0,0.5-0.1
	c0.2,0,0.3-0.1,0.4-0.2v1.1c-0.1,0.1-0.2,0.3-0.4,0.3c-0.1,0.1-0.3,0.2-0.4,0.2c-0.1,0.1-0.3,0.1-0.4,0.1c-0.1,0-0.3,0-0.4,0
	c-0.3,0-0.5,0-0.8-0.1c-0.3-0.1-0.5-0.2-0.7-0.4c-0.2-0.2-0.4-0.5-0.5-0.9c-0.1-0.4-0.2-0.8-0.2-1.4V18.1z M94.6,16.7h2v8.1
	c0,0.5,0.1,0.8,0.2,1c0.1,0.2,0.4,0.3,0.6,0.3c0.2,0,0.4-0.1,0.6-0.2c0.2-0.1,0.4-0.3,0.5-0.5v-8.7h2v10.8H99l-0.2-1.1h0
	c-0.2,0.2-0.3,0.5-0.5,0.6c-0.2,0.2-0.4,0.3-0.5,0.4c-0.2,0.1-0.4,0.2-0.6,0.2c-0.2,0-0.4,0.1-0.6,0.1c-0.6,0-1.1-0.2-1.5-0.7
	c-0.3-0.4-0.5-1.1-0.5-2V16.7z M102.6,16.7h1.4l0.2,1.1c0.2-0.4,0.5-0.7,0.8-0.9c0.3-0.2,0.6-0.3,0.9-0.3c0.6,0,1,0.2,1.3,0.5
	c0.3,0.3,0.4,0.9,0.4,1.6c0,0.1,0,0.2,0,0.3c0,0.1,0,0.2-0.1,0.4c0,0.1,0,0.3-0.1,0.4c0,0.1-0.1,0.3-0.1,0.4h-1.4v-1
	c0-0.2,0-0.4,0-0.5c0-0.1-0.1-0.3-0.1-0.3c0-0.1-0.1-0.1-0.2-0.2c-0.1,0-0.1-0.1-0.2-0.1c-0.2,0-0.3,0.1-0.4,0.2
	c-0.1,0.1-0.2,0.2-0.3,0.4v8.9h-2V16.7z M111.3,27.6c-0.5,0-0.9-0.1-1.2-0.3c-0.4-0.2-0.7-0.4-0.9-0.8c-0.2-0.4-0.4-0.8-0.6-1.4
	c-0.1-0.6-0.2-1.3-0.2-2.1v-2c0-0.7,0-1.3,0.1-1.8c0.1-0.5,0.2-0.9,0.4-1.2c0.2-0.3,0.4-0.6,0.6-0.8c0.2-0.2,0.4-0.3,0.7-0.4
	c0.2-0.1,0.5-0.2,0.7-0.2c0.2,0,0.4,0,0.6,0c0.4,0,0.7,0.1,1,0.2c0.3,0.1,0.6,0.3,0.9,0.5c0.3,0.3,0.4,0.6,0.6,1
	c0.2,0.4,0.2,1,0.2,1.6c0,0.2,0,0.4,0,0.7c0,0.2,0,0.4,0,0.7c0,0.2-0.1,0.4-0.1,0.6c0,0.2-0.1,0.4-0.1,0.6h-3.6v1.1
	c0,0.5,0,0.9,0.1,1.2c0,0.3,0.1,0.6,0.2,0.8c0.1,0.2,0.2,0.3,0.4,0.4c0.2,0.1,0.3,0.1,0.6,0.1c0.1,0,0.2,0,0.4-0.1
	c0.1-0.1,0.2-0.1,0.3-0.3c0.1-0.1,0.2-0.3,0.2-0.5c0.1-0.2,0.1-0.4,0.1-0.7v-0.3h1.6v0.4c0,1-0.2,1.8-0.7,2.2
	C112.9,27.4,112.2,27.6,111.3,27.6z M112.4,21.2c0-0.1,0-0.1,0-0.2c0-0.1,0-0.2,0-0.3c0-0.1,0-0.2,0-0.3c0-0.1,0-0.2,0-0.3
	c0-0.7-0.1-1.2-0.3-1.5c-0.2-0.3-0.4-0.5-0.7-0.5c-0.2,0-0.3,0-0.5,0.1c-0.1,0.1-0.2,0.2-0.3,0.4c-0.1,0.2-0.1,0.4-0.2,0.8
	c0,0.3-0.1,0.7-0.1,1.2v0.7H112.4z"/>
<path class="st1" d="M12,4h100V0H12V4z M120,12v19h4V12H120z M112,39H12v4h100V39z M4,31V12H0v19H4z M12,39c-4.4,0-8-3.6-8-8H0
	c0,6.6,5.4,12,12,12V39z M120,31c0,4.4-3.6,8-8,8v4c6.6,0,12-5.4,12-12H120z M112,4c4.4,0,8,3.6,8,8h4c0-6.6-5.4-12-12-12V4z M12,0
	C5.4,0,0,5.4,0,12h4c0-4.4,3.6-8,8-8V0z"/>
</svg>
