<svg width="57" height="57" viewBox="0 0 57 57" fill="none" xmlns="http://www.w3.org/2000/svg">
<circle opacity="0.2" cx="28.5" cy="28.5" r="28.5" fill="#E35E71"/>
<path d="M24.3 18.78C24.3 16.6923 25.9923 15 28.08 15C30.1677 15 31.86 16.6923 31.86 18.78C31.86 20.8676 30.1677 22.56 28.08 22.56C25.9923 22.56 24.3 20.8676 24.3 18.78ZM37.6679 18.8521C37.0119 18.196 35.9481 18.196 35.2921 18.8521L30.7441 23.4H25.4158L20.8679 18.8521C20.2119 18.196 19.1481 18.196 18.4921 18.8521C17.836 19.5082 17.836 20.5719 18.4921 21.228L23.46 26.1958V40.2C23.46 41.1278 24.2122 41.88 25.14 41.88H25.98C26.9078 41.88 27.66 41.1278 27.66 40.2V34.32H28.5V40.2C28.5 41.1278 29.2522 41.88 30.18 41.88H31.02C31.9478 41.88 32.7 41.1278 32.7 40.2V26.1958L37.6679 21.2279C38.324 20.5718 38.324 19.5082 37.6679 18.8521Z" fill="#E35E71"/>
</svg>
