<svg width="29" height="29" viewBox="0 0 29 29" fill="none" xmlns="http://www.w3.org/2000/svg">
<rect width="29" height="29" rx="8" fill="#DC6DFF"/>
<path d="M17.5261 7.82609C18.0522 7.82609 18.5027 7.63861 18.8777 7.26365C19.252 6.88933 19.4391 6.43913 19.4391 5.91304C19.4391 5.38696 19.252 4.93643 18.8777 4.56148C18.5027 4.18716 18.0522 4 17.5261 4C17 4 16.5498 4.18716 16.1755 4.56148C15.8005 4.93643 15.613 5.38696 15.613 5.91304C15.613 6.43913 15.8005 6.88933 16.1755 7.26365C16.5498 7.63861 17 7.82609 17.5261 7.82609ZM10.113 26C9.92174 26 9.75435 25.9283 9.61087 25.7848C9.46739 25.6413 9.39565 25.4739 9.39565 25.2826C9.39565 25.0913 9.46739 24.9239 9.61087 24.7804C9.75435 24.637 9.92174 24.5652 10.113 24.5652C10.3043 24.5652 10.4717 24.637 10.6152 24.7804C10.7587 24.9239 10.8304 25.0913 10.8304 25.2826C10.8304 25.4739 10.7587 25.6413 10.6152 25.7848C10.4717 25.9283 10.3043 26 10.113 26ZM18.2435 26C18.0522 26 17.8848 25.9283 17.7413 25.7848C17.5978 25.6413 17.5261 25.4739 17.5261 25.2826C17.5261 25.0913 17.5978 24.9239 17.7413 24.7804C17.8848 24.637 18.0522 24.5652 18.2435 24.5652C18.4348 24.5652 18.6022 24.637 18.7457 24.7804C18.8891 24.9239 18.9609 25.0913 18.9609 25.2826C18.9609 25.4739 18.8891 25.6413 18.7457 25.7848C18.6022 25.9283 18.4348 26 18.2435 26ZM9.63478 24.087C8.91739 24.087 8.2558 23.9314 7.65 23.6202C7.0442 23.3096 6.54203 22.8913 6.14348 22.3652C6.09565 22.2855 6.05994 22.2138 6.03635 22.15C6.01212 22.0862 6 22.0145 6 21.9348C6 21.7435 6.06377 21.5761 6.1913 21.4326C6.31884 21.2891 6.4942 21.2174 6.71739 21.2174C6.84493 21.2174 6.95238 21.2413 7.03974 21.2891C7.12774 21.337 7.21159 21.4087 7.2913 21.5043C7.48261 21.7754 7.72556 22.0027 8.02017 22.1863C8.31542 22.3694 8.63043 22.5007 8.96522 22.5804L11.9543 18.9696L10.687 15C10.6072 14.729 10.5833 14.458 10.6152 14.187C10.6471 13.9159 10.7348 13.6609 10.8783 13.4217L13.1739 9.73913H10.9261L9.61087 11.8435C9.46739 12.0667 9.26812 12.2101 9.01304 12.2739C8.75797 12.3377 8.51884 12.2978 8.29565 12.1543C8.07246 12.0109 7.93281 11.8116 7.8767 11.5565C7.82122 11.3014 7.85725 11.0623 7.98478 10.8391L9.3 8.73478C9.47536 8.44783 9.71067 8.22464 10.0059 8.06522C10.3005 7.9058 10.6072 7.82609 10.9261 7.82609H15.3261C15.7565 7.82609 16.1034 7.94565 16.3668 8.18478C16.6295 8.42391 16.8087 8.6471 16.9043 8.85435L17.4065 10.0022C17.6775 10.6399 18.0841 11.1819 18.6261 11.6283C19.1681 12.0746 19.7899 12.3696 20.4913 12.513C20.7464 12.5609 20.9536 12.6804 21.113 12.8717C21.2725 13.063 21.3522 13.2703 21.3522 13.4935C21.3522 13.7964 21.2485 14.0397 21.0413 14.2233C20.8341 14.4063 20.5949 14.4739 20.3239 14.4261C19.4152 14.2667 18.5942 13.9399 17.8609 13.4457C17.1275 12.9514 16.5297 12.3377 16.0674 11.6043L14.3457 14.3543L17.5739 16.363C17.8609 16.5384 18.0841 16.7696 18.2435 17.0565C18.4029 17.3435 18.4826 17.6543 18.4826 17.9891V22.6522H18.7696C19.2319 22.6522 19.6623 22.5485 20.0609 22.3413C20.4594 22.1341 20.7942 21.8551 21.0652 21.5043C21.1449 21.4087 21.2285 21.337 21.3158 21.2891C21.4038 21.2413 21.5116 21.2174 21.6391 21.2174C21.8464 21.2174 22.0176 21.2891 22.1528 21.4326C22.2886 21.5761 22.3565 21.7435 22.3565 21.9348C22.3565 22.0145 22.3447 22.0862 22.3211 22.15C22.2969 22.2138 22.2609 22.2855 22.213 22.3652C21.8145 22.8913 21.3203 23.3096 20.7304 23.6202C20.1406 23.9314 19.487 24.087 18.7696 24.087H9.63478ZM11.4043 22.6522H16.5696V18.2522L13.2217 16.1478L13.8913 18.3239C13.987 18.6268 14.0029 18.9339 13.9391 19.245C13.8754 19.5556 13.7399 19.8384 13.5326 20.0935L11.4043 22.6522Z" fill="white"/>
</svg>
