<svg width="29" height="29" viewBox="0 0 29 29" fill="none" xmlns="http://www.w3.org/2000/svg">
<rect width="29" height="29" rx="8" fill="#DC6DFF"/>
<path d="M12.4898 12.5714H9.65986V15.4286H12.4898V12.5714ZM20.9796 4H6.82993C5.26684 4 4 5.27902 4 6.85714V21.1429C4 22.721 5.26684 24 6.82993 24H20.9796C22.5427 24 23.8095 22.721 23.8095 21.1429V6.85714C23.8095 5.27902 22.5405 4 20.9796 4ZM20.9796 9.71429H18.1497V12.5714H20.9796V15.4286H18.1497V18.2857H20.9796V21.1429H18.1497V18.2857H15.3197V21.1429H12.4898V18.2857H9.65986V21.1429H6.82993V18.2857H9.65986V15.4286H6.82993V12.5714H9.65986V9.71429H6.82993V6.85714H9.65986V9.71429H12.4898V6.85714H15.3197V9.71429H18.1497V6.85714H20.9796V9.71429ZM12.4898 15.4286V18.2857H15.3197V15.4286H12.4898ZM15.3197 12.5714V9.71429H12.4898V12.5714H15.3197ZM15.3197 15.4286H18.1497V12.5714H15.3197V15.4286Z" fill="white"/>
</svg>
