<svg width="57" height="57" viewBox="0 0 57 57" fill="none" xmlns="http://www.w3.org/2000/svg">
<circle opacity="0.2" cx="28.5" cy="28.5" r="28.5" fill="#EF9645"/>
<path d="M26.4103 26.52H22.6069V30.36H26.4103V26.52ZM37.8206 15H18.8034C16.7026 15 15 16.719 15 18.84V38.04C15 40.161 16.7026 41.88 18.8034 41.88H37.8206C39.9214 41.88 41.624 40.161 41.624 38.04V18.84C41.624 16.719 39.9184 15 37.8206 15ZM37.8206 22.68H34.0171V26.52H37.8206V30.36H34.0171V34.2H37.8206V38.04H34.0171V34.2H30.2137V38.04H26.4103V34.2H22.6069V38.04H18.8034V34.2H22.6069V30.36H18.8034V26.52H22.6069V22.68H18.8034V18.84H22.6069V22.68H26.4103V18.84H30.2137V22.68H34.0171V18.84H37.8206V22.68ZM26.4103 30.36V34.2H30.2137V30.36H26.4103ZM30.2137 26.52V22.68H26.4103V26.52H30.2137ZM30.2137 30.36H34.0171V26.52H30.2137V30.36Z" fill="#EF9645"/>
</svg>
