<svg width="29" height="29" viewBox="0 0 29 29" fill="none" xmlns="http://www.w3.org/2000/svg">
<rect width="29" height="29" rx="8" fill="#DC6DFF"/>
<path d="M7.90547 17.683C7.89878 17.8896 7.9519 18.0937 8.05795 18.2709C8.16419 18.4482 8.3192 18.5911 8.50438 18.6827C8.72661 18.7927 8.97846 18.8278 9.2222 18.7826C9.46593 18.7374 9.68832 18.6142 9.85617 18.4317C9.96801 18.3087 10.1438 18.2666 10.2992 18.3255C10.4547 18.3846 10.5582 18.5326 10.5604 18.699C10.5906 19.4247 10.489 20.1501 10.2609 20.8397H11.8797C11.6488 20.1506 11.5445 19.4252 11.5722 18.699C11.5704 18.5288 11.6753 18.3756 11.8347 18.3159C11.994 18.2561 12.1738 18.3024 12.2844 18.4317C12.4524 18.6151 12.6757 18.7389 12.9203 18.784C13.1648 18.8294 13.4175 18.7938 13.6401 18.6827C13.8247 18.5936 13.9796 18.4529 14.0858 18.2776C14.192 18.1024 14.2453 17.9 14.239 17.6951L11.0702 13.7372L7.90547 17.683Z" fill="white"/>
<path d="M17.141 9.16034H5V25H17.141V9.16034ZM5.9833 11.3011C5.98222 11.1161 6.05503 10.9381 6.18529 10.8067C6.31573 10.6754 6.49297 10.6013 6.67796 10.601C6.86314 10.6006 7.04074 10.674 7.17155 10.8049C7.30253 10.9357 7.37589 11.1133 7.37553 11.2985C7.37517 11.4835 7.30109 11.6608 7.16975 11.7912C7.0384 11.9215 6.86044 11.9943 6.67541 11.9932C6.49222 11.9921 6.31679 11.9188 6.18723 11.7892C6.05768 11.6597 5.98434 11.4842 5.98326 11.301L5.9833 11.3011ZM13.9598 19.4274C13.4722 19.6502 12.9163 19.6706 12.4138 19.484C12.4154 20.0123 12.5809 20.5268 12.8873 20.9572C13.002 21.0735 13.0356 21.2475 12.9722 21.3982C12.9101 21.5494 12.7632 21.6484 12.5999 21.6491H9.54044C9.37712 21.6484 9.23024 21.5494 9.16808 21.3982C9.10467 21.2475 9.13827 21.0735 9.253 20.9572C9.55941 20.5268 9.7249 20.0123 9.72652 19.484C9.22409 19.6706 8.66815 19.6502 8.18052 19.4274C7.85026 19.2751 7.57167 19.0298 7.3789 18.7214C7.1863 18.4128 7.08784 18.0549 7.09597 17.6912C7.09344 17.6097 7.1003 17.5282 7.1162 17.4484C7.12885 17.3848 7.15667 17.325 7.19714 17.2744L10.7545 12.8227C10.8313 12.727 10.9475 12.6713 11.0701 12.6713C11.1928 12.6713 11.309 12.727 11.3858 12.8227L14.9431 17.2744C14.9836 17.325 15.0114 17.3848 15.0241 17.4484C15.0327 17.525 15.0327 17.6025 15.0241 17.6791C15.0353 18.0422 14.9406 18.401 14.7516 18.7114C14.5626 19.0218 14.2875 19.2706 13.9598 19.4274L13.9598 19.4274ZM15.4653 23.5553H15.4651C15.2801 23.5564 15.1022 23.4836 14.9708 23.3534C14.8395 23.2229 14.7654 23.0457 14.765 22.8605C14.7647 22.6755 14.838 22.4979 14.969 22.3671C15.0998 22.2361 15.2774 22.1628 15.4626 22.1631C15.6476 22.1635 15.8248 22.2376 15.9553 22.3689C16.0855 22.5002 16.1583 22.6782 16.1572 22.8632C16.1572 23.0468 16.0843 23.2228 15.9545 23.3527C15.8248 23.4824 15.6487 23.5554 15.4651 23.5554L15.4653 23.5553Z" fill="white"/>
<path d="M17.9503 10.7828V15.0524L19.8524 12.9196L17.9503 10.7828Z" fill="white"/>
<path d="M23.6162 5H11.4752V8.35086H17.5457C17.653 8.35086 17.756 8.39349 17.8319 8.46938C17.9078 8.54526 17.9504 8.64824 17.9504 8.75556V9.61754C17.9994 9.63958 18.0433 9.67138 18.0799 9.71058L20.6214 12.5718C20.6879 12.645 20.7253 12.74 20.7265 12.8389V13.0049C20.7264 13.1052 20.6888 13.2018 20.6214 13.2761L18.0799 16.1292C18.0433 16.1664 17.9992 16.1953 17.9504 16.2141V20.8397H23.6162V5ZM13.1509 7.83289C12.9663 7.83289 12.7892 7.75954 12.6586 7.62891C12.5281 7.49847 12.4548 7.32141 12.4548 7.13675C12.4548 6.95211 12.5281 6.77505 12.6586 6.64441C12.7892 6.51396 12.9662 6.44062 13.1509 6.44062C13.3354 6.44062 13.5124 6.51396 13.6431 6.64441C13.7735 6.77503 13.8469 6.95208 13.8469 7.13675C13.8469 7.3214 13.7735 7.49845 13.6431 7.62891C13.5124 7.75953 13.3354 7.83289 13.1509 7.83289ZM21.941 19.3948C21.7561 19.3959 21.5785 19.3234 21.4472 19.1933C21.3158 19.0632 21.2416 18.8864 21.2409 18.7015C21.2401 18.5167 21.3129 18.3391 21.4434 18.2079C21.5736 18.077 21.7507 18.0031 21.9355 18.0027C22.1205 18.0023 22.2978 18.0755 22.4288 18.2061C22.5596 18.3366 22.6331 18.5138 22.6331 18.6988C22.6331 18.8827 22.5603 19.0591 22.4306 19.1895C22.301 19.3199 22.1249 19.3936 21.941 19.3947L21.941 19.3948Z" fill="white"/>
</svg>
