<svg width="57" height="57" viewBox="0 0 57 57" fill="none" xmlns="http://www.w3.org/2000/svg">
<circle opacity="0.2" cx="28.5" cy="28.5" r="28.5" fill="#F9C071"/>
<path d="M19.9051 33.046C19.8961 33.3236 19.9675 33.598 20.11 33.8362C20.2528 34.0744 20.4611 34.2664 20.71 34.3896C21.0087 34.5374 21.3472 34.5845 21.6747 34.5238C22.0023 34.4631 22.3012 34.2975 22.5268 34.0523C22.6771 33.8869 22.9134 33.8303 23.1222 33.9095C23.3313 33.9889 23.4704 34.1878 23.4733 34.4114C23.5138 35.3868 23.3774 36.3617 23.0707 37.2886H25.2464C24.936 36.3625 24.7959 35.3875 24.8331 34.4114C24.8307 34.1827 24.9717 33.9768 25.1859 33.8966C25.4001 33.8163 25.6417 33.8784 25.7903 34.0523C26.0161 34.2987 26.3162 34.4651 26.645 34.5258C26.9735 34.5867 27.3132 34.5389 27.6124 34.3896C27.8605 34.2698 28.0686 34.0807 28.2114 33.8452C28.3542 33.6096 28.4258 33.3377 28.4173 33.0623L24.1585 27.7429L19.9051 33.046Z" fill="#F9C071"/>
<path d="M32.3174 21.5915H16V42.88H32.3174V21.5915ZM17.3216 24.4687C17.3201 24.22 17.418 23.9808 17.593 23.8043C17.7683 23.6277 18.0065 23.5282 18.2552 23.5277C18.5041 23.5272 18.7428 23.6258 18.9186 23.8019C19.0946 23.9777 19.1932 24.2163 19.1927 24.4652C19.1922 24.7139 19.0927 24.9521 18.9161 25.1274C18.7396 25.3025 18.5004 25.4003 18.2518 25.3989C18.0055 25.3974 17.7698 25.2988 17.5956 25.1247C17.4215 24.9506 17.323 24.7148 17.3215 24.4686L17.3216 24.4687ZM28.042 35.3905C27.3866 35.6899 26.6395 35.7173 25.9641 35.4665C25.9663 36.1765 26.1887 36.868 26.6006 37.4464C26.7547 37.6028 26.7999 37.8366 26.7147 38.0392C26.6311 38.2424 26.4337 38.3755 26.2142 38.3764H22.1024C21.8828 38.3755 21.6854 38.2424 21.6019 38.0392C21.5167 37.8367 21.5618 37.6028 21.716 37.4464C22.1278 36.868 22.3503 36.1765 22.3524 35.4665C21.6772 35.7173 20.93 35.6899 20.2746 35.3905C19.8307 35.1858 19.4563 34.856 19.1972 34.4415C18.9384 34.0268 18.8061 33.5458 18.817 33.057C18.8136 32.9475 18.8228 32.838 18.8442 32.7306C18.8612 32.6452 18.8986 32.5648 18.953 32.4968L23.7341 26.5137C23.8373 26.385 23.9934 26.3103 24.1583 26.3103C24.3231 26.3103 24.4793 26.385 24.5825 26.5137L29.3636 32.4968C29.418 32.5648 29.4554 32.6452 29.4723 32.7306C29.484 32.8336 29.484 32.9377 29.4723 33.0407C29.4874 33.5288 29.3602 34.011 29.1062 34.4282C28.8522 34.8453 28.4824 35.1797 28.0419 35.3904L28.042 35.3905ZM30.0654 40.9384H30.0651C29.8165 40.9398 29.5773 40.842 29.4008 40.6669C29.2242 40.4916 29.1247 40.2534 29.1242 40.0045C29.1237 39.7559 29.2223 39.5172 29.3983 39.3414C29.5741 39.1653 29.8128 39.0667 30.0617 39.0672C30.3104 39.0677 30.5486 39.1673 30.7239 39.3438C30.8989 39.5203 30.9968 39.7595 30.9953 40.0082C30.9953 40.2549 30.8972 40.4914 30.7229 40.666C30.5485 40.8403 30.3118 40.9384 30.0651 40.9384L30.0654 40.9384Z" fill="#F9C071"/>
<path d="M33.4053 23.7721V29.5104L35.9617 26.6439L33.4053 23.7721Z" fill="#F9C071"/>
<path d="M41.0201 16H24.7026V20.5035H32.8614C33.0056 20.5035 33.144 20.5609 33.246 20.6628C33.348 20.7648 33.4053 20.9032 33.4053 21.0475V22.206C33.4711 22.2356 33.5301 22.2783 33.5794 22.331L36.9951 26.1765C37.0844 26.2749 37.1347 26.4026 37.1364 26.5354V26.7586C37.1362 26.8933 37.0857 27.0232 36.9951 27.123L33.5794 30.9577C33.5301 31.0077 33.4708 31.0465 33.4053 31.0718V37.2886H41.0201V16ZM26.9548 19.8074C26.7066 19.8074 26.4686 19.7088 26.293 19.5333C26.1177 19.3579 26.0191 19.12 26.0191 18.8718C26.0191 18.6236 26.1177 18.3857 26.293 18.2101C26.4686 18.0348 26.7066 17.9362 26.9548 17.9362C27.2027 17.9362 27.4406 18.0348 27.6162 18.2101C27.7915 18.3856 27.8901 18.6236 27.8901 18.8718C27.8901 19.12 27.7915 19.3579 27.6162 19.5333C27.4407 19.7088 27.2027 19.8074 26.9548 19.8074ZM38.7686 35.3466C38.5202 35.348 38.2815 35.2507 38.1049 35.0758C37.9284 34.901 37.8286 34.6633 37.8276 34.4149C37.8267 34.1664 37.9245 33.9278 38.0998 33.7515C38.2749 33.5754 38.5129 33.4761 38.7613 33.4756C39.0099 33.4751 39.2482 33.5735 39.4242 33.749C39.6 33.9244 39.6988 34.1626 39.6988 34.4112C39.6988 34.6584 39.601 34.8954 39.4266 35.0707C39.2525 35.246 39.0158 35.345 38.7686 35.3465L38.7686 35.3466Z" fill="#F9C071"/>
</svg>
