<svg width="29" height="29" viewBox="0 0 29 29" fill="none" xmlns="http://www.w3.org/2000/svg">
<rect width="29" height="29" rx="8" fill="#DC6DFF"/>
<path d="M8.33336 19.7756V16.07L12.7867 18.6267C13.4603 19.0135 14.2234 19.217 15.0001 19.217C15.7768 19.217 16.5399 19.0135 17.2134 18.6267L21.6668 16.0711V19.7756C21.6669 19.8486 21.6527 19.9209 21.6248 19.9884C21.597 20.0559 21.5561 20.1172 21.5046 20.1689L21.5024 20.17L21.5001 20.1734L21.4924 20.18L21.4668 20.2045L21.3779 20.2867C21.2693 20.382 21.1578 20.4739 21.0435 20.5623C20.6444 20.8687 20.2203 21.1411 19.7757 21.3767C18.3052 22.1568 16.6647 22.5613 15.0001 22.5545C13.3355 22.5613 11.695 22.1568 10.2245 21.3767C9.78025 21.1411 9.35654 20.8687 8.95781 20.5623C8.81119 20.4492 8.66958 20.3299 8.53336 20.2045L8.50781 20.18C8.45336 20.1276 8.40989 20.0648 8.37994 19.9953C8.34999 19.9259 8.33416 19.8512 8.33336 19.7756ZM24.7213 13.0355L16.6601 17.6633C16.155 17.9534 15.5826 18.1061 15.0001 18.1061C14.4176 18.1061 13.8452 17.9534 13.3401 17.6633L6.11112 13.5133V18.6645C6.11112 18.8118 6.05259 18.9531 5.9484 19.0573C5.84421 19.1615 5.7029 19.22 5.55556 19.22C5.40822 19.22 5.26691 19.1615 5.16272 19.0573C5.05853 18.9531 5 18.8118 5 18.6645V12.5533C4.99994 12.4531 5.02697 12.3548 5.07822 12.2688C5.12946 12.1827 5.20302 12.1121 5.29111 12.0644L13.3401 7.44326C13.8451 7.15284 14.4175 7 15.0001 7C15.5827 7 16.1551 7.15284 16.6601 7.44326L24.7213 12.0722C24.806 12.1209 24.8764 12.191 24.9253 12.2756C24.9742 12.3602 25 12.4562 25 12.5539C25 12.6516 24.9742 12.7475 24.9253 12.8321C24.8764 12.9167 24.806 12.9868 24.7213 13.0355Z" fill="white"/>
</svg>
