<svg width="57" height="57" viewBox="0 0 57 57" fill="none" xmlns="http://www.w3.org/2000/svg">
<circle opacity="0.2" cx="28.5" cy="28.5" r="28.5" fill="#FF7892"/>
<path d="M16.7604 37.0776V30.6739L24.4563 35.0922C25.6202 35.7606 26.939 36.1123 28.2812 36.1123C29.6234 36.1123 30.9422 35.7606 32.1061 35.0922L39.802 30.6759V37.0776C39.8023 37.2038 39.7776 37.3287 39.7295 37.4454C39.6814 37.562 39.6108 37.668 39.5217 37.7573L39.5179 37.7592L39.514 37.765L39.5006 37.7765L39.4564 37.8188L39.3028 37.9609C39.1151 38.1255 38.9224 38.2843 38.7248 38.437C38.0352 38.9666 37.3023 39.4374 36.534 39.8445C33.9928 41.1925 31.1578 41.8917 28.2812 41.8799C25.4046 41.8917 22.5697 41.1925 20.0285 39.8445C19.2608 39.4373 18.5286 38.9665 17.8395 38.437C17.5862 38.2417 17.3414 38.0354 17.106 37.8188L17.0619 37.7765C16.9678 37.6858 16.8927 37.5773 16.8409 37.4574C16.7891 37.3374 16.7618 37.2083 16.7604 37.0776ZM45.0805 25.43L31.1499 33.4274C30.277 33.9287 29.2879 34.1925 28.2812 34.1925C27.2746 34.1925 26.2855 33.9287 25.4125 33.4274L12.9201 26.2557V35.1575C12.9201 35.4121 12.819 35.6563 12.6389 35.8363C12.4589 36.0164 12.2147 36.1175 11.9601 36.1175C11.7054 36.1175 11.4612 36.0164 11.2812 35.8363C11.1011 35.6563 11 35.4121 11 35.1575V24.5967C10.9999 24.4236 11.0466 24.2537 11.1352 24.105C11.2237 23.9563 11.3508 23.8342 11.5031 23.7518L25.4125 15.766C26.2853 15.2641 27.2745 15 28.2812 15C29.288 15 30.2772 15.2641 31.1499 15.766L45.0805 23.7653C45.2269 23.8494 45.3485 23.9707 45.4331 24.1168C45.5176 24.263 45.5622 24.4288 45.5622 24.5977C45.5622 24.7665 45.5176 24.9324 45.4331 25.0785C45.3485 25.2247 45.2269 25.3459 45.0805 25.43Z" fill="#FF7892"/>
</svg>
