<?xml version="1.0" encoding="utf-8"?>
<!-- Generator: Adobe Illustrator 23.1.0, SVG Export Plug-In . SVG Version: 6.00 Build 0)  -->
<svg version="1.1" id="Слой_1" xmlns="http://www.w3.org/2000/svg" xmlns:xlink="http://www.w3.org/1999/xlink" x="0px" y="0px"
	 viewBox="0 0 133 43" style="enable-background:new 0 0 133 43;" xml:space="preserve">
<style type="text/css">
	.st0{fill:#FFFFFF;}
	.st1{fill:#DC6DFF;}
</style>
<path class="st0" d="M2,12C2,6.5,6.5,2,12,2h109c5.5,0,10,4.5,10,10v19c0,5.5-4.5,10-10,10H12C6.5,41,2,36.5,2,31V12z"/>
<path class="st1" d="M15,7h13c4.4,0,8,3.6,8,8v13c0,4.4-3.6,8-8,8H15c-4.4,0-8-3.6-8-8V15C7,10.6,10.6,7,15,7z"/>
<path class="st0" d="M15.3,26.8v-3.7l4.5,2.6c0.7,0.4,1.4,0.6,2.2,0.6c0.8,0,1.5-0.2,2.2-0.6l4.5-2.6v3.7c0,0.1,0,0.1,0,0.2
	c0,0.1-0.1,0.1-0.1,0.2l0,0l0,0l0,0l0,0l-0.1,0.1c-0.1,0.1-0.2,0.2-0.3,0.3c-0.4,0.3-0.8,0.6-1.3,0.8c-1.5,0.8-3.1,1.2-4.8,1.2
	c-1.7,0-3.3-0.4-4.8-1.2c-0.4-0.2-0.9-0.5-1.3-0.8c-0.1-0.1-0.3-0.2-0.4-0.4l0,0c-0.1-0.1-0.1-0.1-0.1-0.2
	C15.4,26.9,15.3,26.9,15.3,26.8z M31.7,20l-8.1,4.6c-0.5,0.3-1.1,0.4-1.7,0.4c-0.6,0-1.2-0.2-1.7-0.4l-7.2-4.1v5.2
	c0,0.1-0.1,0.3-0.2,0.4c-0.1,0.1-0.2,0.2-0.4,0.2c-0.1,0-0.3-0.1-0.4-0.2C12.1,26,12,25.8,12,25.7v-6.1c0-0.1,0-0.2,0.1-0.3
	c0.1-0.1,0.1-0.2,0.2-0.2l8-4.6c0.5-0.3,1.1-0.4,1.7-0.4c0.6,0,1.2,0.2,1.7,0.4l8.1,4.6c0.1,0,0.2,0.1,0.2,0.2
	c0,0.1,0.1,0.2,0.1,0.3s0,0.2-0.1,0.3C31.9,19.9,31.8,20,31.7,20z"/>
<path class="st1" d="M52.1,14.2h4.9v1.6h-2.9v4h2.3v1.6h-2.3v4.6h3v1.6h-5V14.2z M60.6,27.6c-0.1,0-0.3,0-0.4,0
	c-0.2,0-0.3-0.1-0.5-0.2c-0.2-0.1-0.3-0.2-0.5-0.4c-0.2-0.2-0.3-0.4-0.4-0.7c-0.1-0.3-0.2-0.7-0.3-1.1c-0.1-0.4-0.1-0.9-0.1-1.6
	v-3.4c0-0.6,0-1.1,0.1-1.5c0.1-0.4,0.2-0.8,0.3-1c0.1-0.3,0.3-0.5,0.5-0.6c0.2-0.2,0.4-0.3,0.5-0.3c0.2-0.1,0.3-0.1,0.5-0.1
	c0.2,0,0.3,0,0.4,0c0.2,0,0.4,0,0.5,0.1c0.2,0.1,0.3,0.1,0.5,0.2c0.1,0.1,0.3,0.2,0.4,0.3c0.1,0.1,0.2,0.2,0.3,0.3l0,0l-0.1-1.4
	v-2.9h2v14.2h-1.5l-0.2-1c-0.1,0.1-0.2,0.3-0.3,0.4c-0.1,0.1-0.3,0.3-0.4,0.4c-0.2,0.1-0.3,0.2-0.5,0.3C61,27.6,60.8,27.6,60.6,27.6
	z M61.2,26.1c0.1,0,0.2,0,0.3-0.1c0.1,0,0.2-0.1,0.3-0.2c0.1-0.1,0.2-0.2,0.2-0.3c0.1-0.1,0.1-0.2,0.2-0.3v-6.5
	c-0.1-0.2-0.2-0.4-0.4-0.6c-0.2-0.2-0.4-0.2-0.6-0.2c-0.1,0-0.3,0-0.4,0.1c-0.1,0.1-0.2,0.2-0.3,0.3c-0.1,0.1-0.2,0.3-0.2,0.6
	c0,0.3-0.1,0.6-0.1,1v4.1c0,0.4,0,0.7,0.1,1c0.1,0.3,0.1,0.5,0.2,0.6c0.1,0.1,0.2,0.2,0.3,0.3C61,26.1,61.1,26.1,61.2,26.1z
	 M66.2,16.7h2v8.1c0,0.5,0.1,0.8,0.2,1c0.1,0.2,0.4,0.3,0.6,0.3c0.2,0,0.4-0.1,0.6-0.2c0.2-0.1,0.4-0.3,0.5-0.5v-8.7h2v10.8h-1.5
	l-0.2-1.1h0c-0.2,0.2-0.3,0.5-0.5,0.6c-0.2,0.2-0.4,0.3-0.5,0.4c-0.2,0.1-0.4,0.2-0.6,0.2s-0.4,0.1-0.6,0.1c-0.6,0-1.1-0.2-1.5-0.7
	c-0.3-0.4-0.5-1.1-0.5-2V16.7z M76.7,27.6c-0.9,0-1.6-0.4-2.1-1.1c-0.5-0.7-0.7-1.9-0.7-3.4v-2c0-0.7,0-1.3,0.1-1.8
	c0.1-0.5,0.2-0.9,0.4-1.2c0.2-0.3,0.4-0.6,0.6-0.8c0.2-0.2,0.4-0.3,0.7-0.4c0.2-0.1,0.4-0.2,0.7-0.2c0.2,0,0.4,0,0.6,0
	c0.4,0,0.7,0,1,0.1c0.3,0.1,0.6,0.2,0.8,0.4c0.2,0.2,0.4,0.4,0.5,0.7c0.1,0.3,0.2,0.6,0.2,1c0,0.3,0,0.5,0,0.6
	c0,0.2-0.1,0.3-0.1,0.5h-1.6v-0.4c0-0.5-0.1-1-0.2-1.3c-0.1-0.3-0.3-0.5-0.6-0.5c-0.2,0-0.3,0-0.4,0.1c-0.1,0.1-0.2,0.2-0.3,0.4
	C76.1,18.7,76,19,76,19.3c0,0.3-0.1,0.7-0.1,1.2v3.1c0,0.5,0,0.9,0,1.2c0,0.3,0.1,0.6,0.2,0.8c0.1,0.2,0.2,0.4,0.3,0.4
	c0.1,0.1,0.3,0.1,0.5,0.1c0.1,0,0.2,0,0.3-0.1c0.1-0.1,0.2-0.1,0.2-0.3c0.1-0.1,0.1-0.3,0.2-0.5c0-0.2,0.1-0.4,0.1-0.7v-0.3h1.7v0.4
	c0,1-0.2,1.8-0.7,2.2C78.3,27.4,77.6,27.6,76.7,27.6z M82.5,27.6c-0.3,0-0.6-0.1-0.9-0.2c-0.3-0.1-0.5-0.3-0.6-0.5
	c-0.2-0.2-0.3-0.5-0.4-0.8c-0.1-0.3-0.1-0.7-0.1-1c0-0.4,0.1-0.8,0.2-1.2c0.1-0.3,0.3-0.7,0.5-0.9c0.2-0.3,0.5-0.5,0.8-0.8
	c0.3-0.2,0.7-0.4,1.1-0.6c0.2-0.1,0.4-0.2,0.7-0.3c0.3-0.1,0.5-0.2,0.7-0.3v-1.4c0-0.2,0-0.4,0-0.6c0-0.2-0.1-0.3-0.1-0.5
	c-0.1-0.1-0.1-0.2-0.3-0.3c-0.1-0.1-0.3-0.1-0.5-0.1c-0.1,0-0.3,0-0.4,0.1c-0.1,0.1-0.2,0.1-0.4,0.3c-0.1,0.1-0.2,0.3-0.2,0.5
	c-0.1,0.2-0.1,0.5-0.1,0.8v0.5h-1.5c0-0.2-0.1-0.4-0.1-0.6c0-0.2,0-0.3,0-0.5c0-0.4,0.1-0.8,0.2-1.1c0.1-0.3,0.3-0.6,0.6-0.8
	c0.3-0.2,0.5-0.4,0.9-0.5c0.3-0.1,0.7-0.2,1.1-0.2c0.5,0,1,0.1,1.3,0.2c0.4,0.1,0.6,0.3,0.8,0.5c0.2,0.2,0.4,0.5,0.4,0.9
	c0.1,0.4,0.1,0.8,0.1,1.2v8.1h-1.5l-0.1-0.9c-0.2,0.3-0.5,0.6-0.9,0.8C83.4,27.5,83,27.6,82.5,27.6z M83.4,26.1c0.2,0,0.3,0,0.5-0.1
	c0.2-0.1,0.3-0.2,0.4-0.3v-3.4c-0.1,0-0.2,0.1-0.4,0.1c-0.1,0.1-0.3,0.1-0.4,0.2c-0.1,0.1-0.3,0.2-0.4,0.3s-0.3,0.3-0.4,0.4
	c-0.1,0.2-0.2,0.4-0.3,0.6c-0.1,0.2-0.1,0.5-0.1,0.7c0,0.4,0.1,0.7,0.2,1C82.8,26,83,26.1,83.4,26.1z M88.5,18.1h-0.8v-1.4h1L89,14
	h1.4v2.8h1.7v1.4h-1.7V25c0,0.2,0,0.4,0.1,0.6c0,0.1,0.1,0.3,0.2,0.3c0.1,0.1,0.2,0.1,0.3,0.2c0.1,0,0.2,0,0.3,0
	c0.2,0,0.4,0,0.5-0.1c0.2,0,0.3-0.1,0.4-0.2v1.1c-0.1,0.1-0.2,0.3-0.4,0.3c-0.1,0.1-0.3,0.2-0.4,0.2c-0.1,0.1-0.3,0.1-0.4,0.1
	c-0.1,0-0.3,0-0.4,0c-0.3,0-0.5,0-0.8-0.1c-0.3-0.1-0.5-0.2-0.7-0.4c-0.2-0.2-0.4-0.5-0.5-0.9c-0.1-0.4-0.2-0.8-0.2-1.4V18.1z
	 M94.6,15.2c-0.4,0-0.7-0.1-0.9-0.3c-0.2-0.2-0.3-0.5-0.3-1c0-0.2,0-0.4,0.1-0.6c0.1-0.2,0.1-0.3,0.2-0.4c0.1-0.1,0.2-0.2,0.4-0.2
	c0.1,0,0.3-0.1,0.5-0.1c0.4,0,0.7,0.1,0.9,0.3c0.2,0.2,0.3,0.5,0.3,1c0,0.4-0.1,0.7-0.3,1C95.3,15.1,95,15.2,94.6,15.2z M93.5,16.7
	h2v10.8h-2V16.7z M100.3,27.6c-0.2,0-0.5,0-0.7-0.1c-0.2,0-0.5-0.1-0.7-0.2c-0.2-0.1-0.4-0.3-0.6-0.5c-0.2-0.2-0.4-0.5-0.5-0.8
	c-0.1-0.3-0.3-0.8-0.3-1.3c-0.1-0.5-0.1-1.1-0.1-1.8v-1.7c0-0.7,0-1.3,0.1-1.8c0.1-0.5,0.2-0.9,0.4-1.3c0.2-0.3,0.3-0.6,0.5-0.8
	c0.2-0.2,0.4-0.4,0.6-0.5c0.2-0.1,0.5-0.2,0.7-0.2c0.2,0,0.5-0.1,0.7-0.1c0.2,0,0.4,0,0.7,0c0.2,0,0.5,0.1,0.7,0.2
	c0.2,0.1,0.4,0.3,0.6,0.5c0.2,0.2,0.4,0.5,0.5,0.8c0.2,0.3,0.3,0.8,0.4,1.3c0.1,0.5,0.1,1.1,0.1,1.8v1.7c0,0.7,0,1.3-0.1,1.8
	c-0.1,0.5-0.2,0.9-0.4,1.3c-0.2,0.3-0.3,0.6-0.5,0.9c-0.2,0.2-0.4,0.4-0.6,0.5c-0.2,0.1-0.4,0.2-0.7,0.2
	C100.7,27.6,100.5,27.6,100.3,27.6z M100.3,26.1c0.2,0,0.3,0,0.4-0.1c0.1-0.1,0.2-0.2,0.3-0.5c0.1-0.2,0.1-0.5,0.2-0.8
	c0-0.3,0.1-0.8,0.1-1.3v-2.6c0-0.5,0-0.9-0.1-1.3c0-0.3-0.1-0.6-0.2-0.8c-0.1-0.2-0.2-0.4-0.3-0.5c-0.1-0.1-0.3-0.1-0.4-0.1
	c-0.2,0-0.3,0-0.5,0.1c-0.1,0.1-0.2,0.2-0.3,0.5c-0.1,0.2-0.1,0.5-0.2,0.8c0,0.3-0.1,0.8-0.1,1.3v2.6c0,0.5,0,0.9,0.1,1.3
	c0,0.3,0.1,0.6,0.2,0.8c0.1,0.2,0.2,0.4,0.3,0.5C100,26,100.1,26.1,100.3,26.1z M105,16.7h1.5l0.2,1.1v0c0.2-0.2,0.3-0.4,0.5-0.6
	c0.2-0.2,0.4-0.3,0.6-0.4c0.2-0.1,0.4-0.2,0.6-0.2c0.2,0,0.4-0.1,0.6-0.1c0.6,0,1.1,0.2,1.5,0.7c0.3,0.4,0.5,1.1,0.5,2v8.2h-2v-8.2
	c0-0.5-0.1-0.8-0.2-1c-0.1-0.2-0.4-0.3-0.6-0.3c-0.2,0-0.4,0.1-0.6,0.2c-0.2,0.1-0.4,0.3-0.5,0.5v8.7h-2V16.7z M114.5,27.6
	c-0.3,0-0.6-0.1-0.9-0.2c-0.3-0.1-0.5-0.3-0.6-0.5s-0.3-0.5-0.4-0.8c-0.1-0.3-0.1-0.7-0.1-1c0-0.4,0.1-0.8,0.2-1.2
	c0.1-0.3,0.3-0.7,0.5-0.9c0.2-0.3,0.5-0.5,0.8-0.8c0.3-0.2,0.7-0.4,1.1-0.6c0.2-0.1,0.4-0.2,0.7-0.3c0.3-0.1,0.5-0.2,0.7-0.3v-1.4
	c0-0.2,0-0.4,0-0.6c0-0.2-0.1-0.3-0.1-0.5c-0.1-0.1-0.1-0.2-0.3-0.3c-0.1-0.1-0.3-0.1-0.5-0.1c-0.1,0-0.3,0-0.4,0.1
	c-0.1,0.1-0.2,0.1-0.4,0.3c-0.1,0.1-0.2,0.3-0.2,0.5c-0.1,0.2-0.1,0.5-0.1,0.8v0.5h-1.5c0-0.2-0.1-0.4-0.1-0.6c0-0.2,0-0.3,0-0.5
	c0-0.4,0.1-0.8,0.2-1.1c0.1-0.3,0.3-0.6,0.6-0.8c0.3-0.2,0.5-0.4,0.9-0.5c0.3-0.1,0.7-0.2,1.1-0.2c0.5,0,1,0.1,1.3,0.2
	c0.4,0.1,0.6,0.3,0.8,0.5c0.2,0.2,0.4,0.5,0.4,0.9c0.1,0.4,0.1,0.8,0.1,1.2v8.1h-1.5l-0.1-0.9c-0.2,0.3-0.5,0.6-0.9,0.8
	C115.3,27.5,114.9,27.6,114.5,27.6z M115.3,26.1c0.2,0,0.3,0,0.5-0.1c0.2-0.1,0.3-0.2,0.4-0.3v-3.4c-0.1,0-0.2,0.1-0.4,0.1
	c-0.1,0.1-0.3,0.1-0.4,0.2c-0.1,0.1-0.3,0.2-0.4,0.3c-0.1,0.1-0.3,0.3-0.4,0.4c-0.1,0.2-0.2,0.4-0.3,0.6c-0.1,0.2-0.1,0.5-0.1,0.7
	c0,0.4,0.1,0.7,0.2,1C114.7,26,115,26.1,115.3,26.1z M120.2,13.3h2v14.2h-2V13.3z"/>
<path class="st1" d="M12,4h109V0H12V4z M129,12v19h4V12H129z M121,39H12v4h109V39z M4,31V12H0v19H4z M12,39c-4.4,0-8-3.6-8-8H0
	c0,6.6,5.4,12,12,12V39z M129,31c0,4.4-3.6,8-8,8v4c6.6,0,12-5.4,12-12H129z M121,4c4.4,0,8,3.6,8,8h4c0-6.6-5.4-12-12-12V4z M12,0
	C5.4,0,0,5.4,0,12h4c0-4.4,3.6-8,8-8V0z"/>
</svg>
