<svg width="36" height="38" viewBox="0 0 36 38" fill="none" xmlns="http://www.w3.org/2000/svg">
<path d="M4.861 9.91143C5.801 9.22796 7.218 9.35904 8.062 10.0841L7.094 8.62043C6.315 7.46466 6.594 6.21423 7.706 5.4028C8.818 4.5945 11.969 6.76767 11.969 6.76767C11.183 5.60046 11.33 4.12116 12.452 3.30245C13.574 2.48686 15.122 2.76878 15.908 3.93807L26.328 19.2512L25 32.645L13.917 28.4401L4.25 13.5296C3.457 12.3551 3.731 10.7353 4.861 9.91143Z" fill="#EF9645"/>
<path d="M2.69497 18.4304C2.69497 18.4304 1.56297 16.7139 3.21397 15.5374C4.86297 14.3608 5.99397 16.0762 5.99397 16.0762L11.245 24.0428C11.426 23.7286 11.624 23.4186 11.845 23.1128L4.55697 12.0576C4.55697 12.0576 3.42597 10.3421 5.07597 9.16556C6.72497 7.98899 7.85597 9.70443 7.85597 9.70443L14.711 20.1042C14.966 19.8879 15.227 19.6704 15.496 19.4572L7.54897 7.39915C7.54897 7.39915 6.41797 5.6837 8.06797 4.50713C9.71697 3.33056 10.848 5.046 10.848 5.046L18.795 17.102C19.087 16.9157 19.376 16.7545 19.666 16.5839L12.238 5.31544C12.238 5.31544 11.107 3.6 12.756 2.42342C14.405 1.24685 15.536 2.9623 15.536 2.9623L23.39 14.8778L24.584 16.69C19.636 20.2208 19.165 26.863 21.992 31.1522C22.557 32.0104 23.382 31.4226 23.382 31.4226C19.989 26.2742 21.025 20.4891 25.974 16.9594L24.515 9.36322C24.515 9.36322 23.97 7.36169 25.893 6.79369C27.817 6.22674 28.363 8.22826 28.363 8.22826L30.048 13.4339C30.716 15.4978 31.427 17.5545 32.368 19.4998C35.025 24.9926 33.438 31.819 28.428 35.3945C22.963 39.2924 15.492 37.8433 11.744 32.1592L2.69497 18.4304Z" fill="#FFDC5D"/>
<path d="M12 33.729C8.00001 33.729 3.95801 29.5241 3.95801 25.3629C3.95801 24.7876 3.55301 24.3226 3.00001 24.3226C2.44701 24.3226 1.95801 24.7876 1.95801 25.3629C1.95801 31.6047 6.00001 35.8096 12 35.8096C12.553 35.8096 13 35.3009 13 34.7256C13 34.1503 12.553 33.729 12 33.729Z" fill="#5DADEC"/>
<path d="M7 35.7658C4 35.7658 2 33.6852 2 30.5644C2 29.9891 1.553 29.5241 1 29.5241C0.447 29.5241 0 29.9891 0 30.5644C0 34.7255 3 37.8464 7 37.8464C7.553 37.8464 8 37.3814 8 36.8061C8 36.2308 7.553 35.7658 7 35.7658ZM24 2.47644C23.448 2.47644 23 2.94249 23 3.51673C23 4.09098 23.448 4.55703 24 4.55703C28 4.55703 32 8.29064 32 12.8794C32 13.4536 32.448 13.9197 33 13.9197C33.552 13.9197 34 13.4536 34 12.8794C34 7.1432 30 2.47644 24 2.47644Z" fill="#5DADEC"/>
<path d="M29 0.439575C28.448 0.439575 28 0.861934 28 1.43617C28 2.01042 28.448 2.52016 29 2.52016C32 2.52016 33.958 4.83481 33.958 7.67792C33.958 8.25216 34.447 8.71822 35 8.71822C35.553 8.71822 35.958 8.25216 35.958 7.67792C35.958 3.68633 33 0.439575 29 0.439575Z" fill="#5DADEC"/>
</svg>
