<svg width="57" height="57" viewBox="0 0 57 57" fill="none" xmlns="http://www.w3.org/2000/svg">
<circle opacity="0.2" cx="28.5" cy="28.5" r="28.5" fill="#6D6FAC"/>
<path d="M38.0648 20.0005C35.9441 20.0005 33.9512 20.8021 32.4539 22.258L28.5 26.0978L24.5516 22.2575C23.0526 20.8015 21.0603 20 18.9406 20C14.5607 20.0005 11 23.4579 11 27.7072V29.2875C11 33.5384 14.5607 36.9947 18.9352 36.9947C21.0559 36.9947 23.0487 36.1932 24.5461 34.7372L28.5 30.9049L32.4501 34.7425C33.9491 36.1985 35.9413 37 38.061 37C42.4398 36.9973 46 33.5394 46 29.2901V27.7099C46 23.4579 42.4398 20.0005 38.0648 20.0005ZM22.0742 32.339C21.237 33.1522 20.1224 33.6005 18.9362 33.6005C16.4906 33.5979 14.5 31.6644 14.5 29.2901V27.7099C14.5 25.3345 16.4912 23.4005 18.9373 23.4005C20.1235 23.4005 21.2375 23.8487 22.0753 24.6621L26.0254 28.4997L22.0742 32.339ZM42.5 29.2901C42.5 31.6655 40.5088 33.5995 38.0627 33.5995C36.8765 33.5995 35.7625 33.1513 34.9247 32.3379L30.9746 28.5003L34.9247 24.6626C35.762 23.8494 36.8765 23.4011 38.0627 23.4011C40.5094 23.3995 42.5 25.3329 42.5 27.7072V29.2901Z" fill="#6D6FAC"/>
</svg>
