<svg width="29" height="29" viewBox="0 0 29 29" fill="none" xmlns="http://www.w3.org/2000/svg">
<rect width="29" height="29" rx="8" fill="#DC6DFF"/>
<path d="M19.4656 10.0003C18.2538 10.0003 17.115 10.4583 16.2594 11.2903L14 13.4845L11.7438 11.29C10.8872 10.458 9.74875 10 8.5375 10C6.03469 10.0003 4 11.9759 4 14.4041V15.3071C4 17.7362 6.03469 19.7113 8.53438 19.7113C9.74625 19.7113 10.885 19.2532 11.7406 18.4213L14 16.2313L16.2572 18.4243C17.1138 19.2563 18.2522 19.7143 19.4634 19.7143C21.9656 19.7128 24 17.7368 24 15.3086V14.4057C24 11.9759 21.9656 10.0003 19.4656 10.0003ZM10.3281 17.0509C9.84969 17.5156 9.21281 17.7717 8.535 17.7717C7.1375 17.7702 6 16.6654 6 15.3086V14.4057C6 13.0483 7.13781 11.9432 8.53562 11.9432C9.21344 11.9432 9.85 12.1993 10.3288 12.664L12.5859 14.857L10.3281 17.0509ZM22 15.3086C22 16.666 20.8622 17.7711 19.4644 17.7711C18.7866 17.7711 18.15 17.515 17.6713 17.0503L15.4141 14.8573L17.6713 12.6643C18.1497 12.1996 18.7866 11.9435 19.4644 11.9435C20.8625 11.9426 22 13.0474 22 14.4041V15.3086Z" fill="white"/>
</svg>
