<svg width="57" height="57" viewBox="0 0 57 57" fill="none" xmlns="http://www.w3.org/2000/svg">
<circle opacity="0.2" cx="28.5" cy="28.5" r="28.5" fill="#D565DF"/>
<path d="M33.7224 17.6746C33.7224 16.2036 34.926 15 36.397 15C37.8681 15 39.0716 16.2036 39.0716 17.6746C39.0716 19.1457 37.8681 20.3493 36.397 20.3493C34.926 20.3493 33.7224 19.1457 33.7224 17.6746ZM39.0716 41.7463V33.7224H42.4149L39.0716 23.5588C38.6704 22.489 37.7343 21.6866 36.5307 21.6866H36.397C35.1934 21.6866 34.2573 22.489 33.8561 23.5588L32.6525 27.0358C34.1236 27.8382 35.0597 29.3093 35.0597 31.1815V41.88H39.0716V41.7463ZM29.0418 27.7045C30.1116 27.7045 31.0478 26.7684 31.0478 25.6985C31.0478 24.6287 30.1116 23.6925 29.0418 23.6925C27.9719 23.6925 27.0358 24.6287 27.0358 25.6985C27.0358 26.7684 27.9719 27.7045 29.0418 27.7045ZM19.6806 20.3493C21.1516 20.3493 22.3552 19.1457 22.3552 17.6746C22.3552 16.2036 21.1516 15 19.6806 15C18.2096 15 17.006 16.2036 17.006 17.6746C17.006 19.1457 18.2096 20.3493 19.6806 20.3493ZM22.3552 41.7463V32.3851H24.3612V24.3612C24.3612 22.8901 23.1576 21.6866 21.6866 21.6866H17.6746C16.2036 21.6866 15 22.8901 15 24.3612V32.3851H17.006V41.7463H22.3552ZM31.0478 41.7463V36.397H32.3851V31.0478C32.3851 29.9779 31.449 29.0418 30.3791 29.0418H27.7045C26.6346 29.0418 25.6985 29.9779 25.6985 31.0478V36.397H27.0358V41.7463H31.0478Z" fill="#D565DF"/>
</svg>
