<svg width="29" height="29" viewBox="0 0 29 29" fill="none" xmlns="http://www.w3.org/2000/svg">
<rect width="29" height="29" rx="8" fill="#DC6DFF"/>
<path d="M17.6585 5.95122C17.6585 4.87805 18.5366 4 19.6098 4C20.6829 4 21.561 4.87805 21.561 5.95122C21.561 7.02439 20.6829 7.90244 19.6098 7.90244C18.5366 7.90244 17.6585 7.02439 17.6585 5.95122ZM21.561 23.5122V17.6585H24L21.561 10.2439C21.2683 9.46341 20.5854 8.87805 19.7073 8.87805H19.6098C18.7317 8.87805 18.0488 9.46341 17.7561 10.2439L16.878 12.7805C17.9512 13.3659 18.6341 14.439 18.6341 15.8049V23.6098H21.561V23.5122ZM14.2439 13.2683C15.0244 13.2683 15.7073 12.5854 15.7073 11.8049C15.7073 11.0244 15.0244 10.3415 14.2439 10.3415C13.4634 10.3415 12.7805 11.0244 12.7805 11.8049C12.7805 12.5854 13.4634 13.2683 14.2439 13.2683ZM7.41463 7.90244C8.4878 7.90244 9.36585 7.02439 9.36585 5.95122C9.36585 4.87805 8.4878 4 7.41463 4C6.34146 4 5.46341 4.87805 5.46341 5.95122C5.46341 7.02439 6.34146 7.90244 7.41463 7.90244ZM9.36585 23.5122V16.6829H10.8293V10.8293C10.8293 9.7561 9.95122 8.87805 8.87805 8.87805H5.95122C4.87805 8.87805 4 9.7561 4 10.8293V16.6829H5.46341V23.5122H9.36585ZM15.7073 23.5122V19.6098H16.6829V15.7073C16.6829 14.9268 16 14.2439 15.2195 14.2439H13.2683C12.4878 14.2439 11.8049 14.9268 11.8049 15.7073V19.6098H12.7805V23.5122H15.7073Z" fill="white"/>
</svg>
