<svg width="36" height="26" viewBox="0 0 36 26" fill="none" xmlns="http://www.w3.org/2000/svg">
<path d="M2.055 7.80498L2.051 7.80298C2.051 7.80298 0 20.22 0 22.01C0 23.834 1.343 25.312 3 25.312C3.68 25.312 4.3 25.054 4.803 24.634L14.969 15.696L2.055 7.80498ZM33.745 7.80498L33.749 7.80298C33.749 7.80298 35.8 20.22 35.8 22.01C35.8 23.834 34.457 25.312 32.8 25.312C32.12 25.312 31.5 25.054 30.997 24.634L20.831 15.696L33.745 7.80498Z" fill="#31373D"/>
<path d="M25.9 17C30.5944 17 34.4 13.1944 34.4 8.5C34.4 3.80558 30.5944 0 25.9 0C21.2056 0 17.4 3.80558 17.4 8.5C17.4 13.1944 21.2056 17 25.9 17Z" fill="#14171A"/>
<path d="M9.90002 17C14.5944 17 18.4 13.1944 18.4 8.5C18.4 3.80558 14.5944 0 9.90002 0C5.2056 0 1.40002 3.80558 1.40002 8.5C1.40002 13.1944 5.2056 17 9.90002 17Z" fill="#14171A"/>
<path d="M9.90002 0H25.9V16.87H9.90002V0Z" fill="#14171A"/>
<path d="M13 21.25C15.7614 21.25 18 19.0114 18 16.25C18 13.4886 15.7614 11.25 13 11.25C10.2386 11.25 8 13.4886 8 16.25C8 19.0114 10.2386 21.25 13 21.25Z" fill="#14171A"/>
<path d="M22.8 21.25C25.5615 21.25 27.8 19.0114 27.8 16.25C27.8 13.4886 25.5615 11.25 22.8 11.25C20.0386 11.25 17.8 13.4886 17.8 16.25C17.8 19.0114 20.0386 21.25 22.8 21.25Z" fill="#14171A"/>
<path d="M22.8 19.25C24.4569 19.25 25.8 17.9069 25.8 16.25C25.8 14.5931 24.4569 13.25 22.8 13.25C21.1432 13.25 19.8 14.5931 19.8 16.25C19.8 17.9069 21.1432 19.25 22.8 19.25Z" fill="#67757F"/>
<path d="M13 19.25C14.6569 19.25 16 17.9069 16 16.25C16 14.5931 14.6569 13.25 13 13.25C11.3431 13.25 10 14.5931 10 16.25C10 17.9069 11.3431 19.25 13 19.25Z" fill="#67757F"/>
<path d="M25.66 5.685C26.5453 5.685 27.263 4.96732 27.263 4.082C27.263 3.19669 26.5453 2.479 25.66 2.479C24.7747 2.479 24.057 3.19669 24.057 4.082C24.057 4.96732 24.7747 5.685 25.66 5.685Z" fill="#FFCC4D"/>
<path d="M25.66 12.159C26.5453 12.159 27.263 11.4413 27.263 10.556C27.263 9.67069 26.5453 8.953 25.66 8.953C24.7747 8.953 24.057 9.67069 24.057 10.556C24.057 11.4413 24.7747 12.159 25.66 12.159Z" fill="#77B255"/>
<path d="M22.4229 8.922C23.3083 8.922 24.0259 8.20432 24.0259 7.319C24.0259 6.43369 23.3083 5.716 22.4229 5.716C21.5376 5.716 20.8199 6.43369 20.8199 7.319C20.8199 8.20432 21.5376 8.922 22.4229 8.922Z" fill="#50A5E6"/>
<path d="M28.8969 8.922C29.7823 8.922 30.4999 8.20432 30.4999 7.319C30.4999 6.43369 29.7823 5.716 28.8969 5.716C28.0116 5.716 27.2939 6.43369 27.2939 7.319C27.2939 8.20432 28.0116 8.922 28.8969 8.922Z" fill="#DD2E44"/>
<path d="M11.073 5.46298V3.29498C11.073 3.01598 10.847 2.78998 10.568 2.78998H9.01005C8.73105 2.78998 8.50505 3.01598 8.50505 3.29498V5.46298L9.78905 6.74798L11.073 5.46298ZM8.50405 9.09298V11.261C8.50405 11.54 8.73005 11.766 9.00905 11.766H10.567C10.846 11.766 11.072 11.54 11.072 11.261V9.09298L9.78805 7.80798L8.50405 9.09298ZM13.773 5.99298H11.605L10.32 7.27798L11.605 8.56298H13.773C14.052 8.56298 14.278 8.33598 14.278 8.05798V6.49898C14.278 6.21998 14.052 5.99298 13.773 5.99298ZM7.97405 5.99298H5.80505C5.52605 5.99298 5.30005 6.21998 5.30005 6.49798V8.05598C5.30005 8.33498 5.52605 8.56098 5.80505 8.56098H7.97305L9.25805 7.27598L7.97405 5.99298Z" fill="#8899A6"/>
</svg>
