<svg width="36" height="36" viewBox="0 0 36 36" fill="none" xmlns="http://www.w3.org/2000/svg">
<path d="M2.65698 26H10.657V36H2.65698V26ZM24.657 26H32.657V36H24.657V26Z" fill="#FFDC5D"/>
<path d="M32.657 28.72C32.657 28.72 29.657 30.72 24.657 29.72V24.72H32.657V28.72ZM2.65698 28.72C2.65698 28.72 5.65698 30.72 10.657 29.72V24.72H2.65698V28.72Z" fill="#F9CA55"/>
<path d="M3.64001 18.604H11.64V26.604H3.64001V18.604ZM23.663 18.104H31.663V26.104H23.663V18.104Z" fill="#EF9645"/>
<path d="M0.0300385 11.835C0.0300385 11.835 0.0330386 10.61 1.25704 10.613C2.48304 10.617 2.47904 11.842 2.47904 11.842L2.46004 17.526C2.65504 17.436 2.85904 17.355 3.07304 17.285L3.09804 9.396C3.09804 9.396 3.10204 8.171 4.32504 8.175C5.54904 8.178 5.54604 9.404 5.54604 9.404L5.52504 16.824C5.72404 16.806 5.92904 16.792 6.13504 16.782L6.16304 8.18C6.16304 8.18 6.16604 6.955 7.39104 6.96C8.61604 6.964 8.61104 8.189 8.61104 8.189L8.58304 16.789C8.79304 16.801 8.99504 16.822 9.19704 16.841L9.22204 8.802C9.22204 8.802 9.22604 7.577 10.449 7.582C11.673 7.585 11.668 8.809 11.668 8.809L11.644 17.31L11.641 17.991V18.602C7.96704 18.593 5.50804 21.644 5.49704 24.706C5.49704 25.318 6.10904 25.322 6.10904 25.322C6.11904 21.644 8.57604 19.207 12.251 19.218L14.052 15.03C14.052 15.03 14.447 13.871 15.608 14.268C16.766 14.66 16.373 15.821 16.373 15.821L15.48 18.926C15.126 20.16 14.795 21.402 14.621 22.67C14.123 26.254 11.04 29.01 7.32204 29C3.26704 28.983 -0.0129615 25.685 3.85101e-05 21.63C0.00103851 21.416 0.0140385 21.212 0.0340385 21.02L0.00203851 21.016L0.0300385 11.835ZM35.274 11.835C35.274 11.835 35.271 10.61 34.047 10.613C32.821 10.617 32.824 11.842 32.824 11.842L32.843 17.526C32.649 17.436 32.444 17.355 32.231 17.285L32.206 9.396C32.206 9.396 32.202 8.171 30.979 8.175C29.754 8.178 29.757 9.404 29.757 9.404L29.779 16.824C29.581 16.806 29.376 16.792 29.169 16.782L29.142 8.18C29.142 8.18 29.138 6.955 27.913 6.96C26.688 6.964 26.693 8.189 26.693 8.189L26.721 16.789C26.511 16.801 26.309 16.822 26.107 16.841L26.082 8.802C26.082 8.802 26.077 7.577 24.854 7.582C23.63 7.585 23.635 8.809 23.635 8.809L23.659 17.31L23.662 17.991V18.602C27.336 18.593 29.795 21.644 29.807 24.706C29.807 25.318 29.195 25.322 29.195 25.322C29.184 21.644 26.727 19.207 23.053 19.218L21.252 15.03C21.252 15.03 20.858 13.871 19.696 14.268C18.539 14.66 18.931 15.821 18.931 15.821L19.824 18.926C20.178 20.16 20.509 21.402 20.683 22.67C21.181 26.254 24.263 29.01 27.982 29C32.037 28.983 35.318 25.685 35.304 21.63C35.303 21.416 35.29 21.212 35.27 21.02L35.302 21.016L35.274 11.835Z" fill="#FFDC5D"/>
<path d="M23.198 6.458C22.985 6.458 22.769 6.39 22.588 6.25C22.15 5.912 22.07 5.284 22.408 4.847L25.387 0.992C25.722 0.556 26.352 0.472 26.789 0.812C27.227 1.15 27.307 1.778 26.969 2.215L23.99 6.07C23.794 6.325 23.498 6.458 23.198 6.458ZM12.178 6.458C11.879 6.458 11.583 6.324 11.386 6.069L8.407 2.215C8.07 1.778 8.151 1.15 8.588 0.812C9.025 0.475 9.652 0.555 9.991 0.992L12.97 4.847C13.307 5.284 13.227 5.912 12.79 6.25C12.607 6.391 12.392 6.458 12.178 6.458ZM17.657 6C17.105 6 16.657 5.552 16.657 5V1C16.657 0.448 17.105 0 17.657 0C18.21 0 18.657 0.448 18.657 1V5C18.657 5.552 18.21 6 17.657 6Z" fill="#5DADEC"/>
</svg>
