<?xml version="1.0" encoding="utf-8"?>
<!-- Generator: Adobe Illustrator 23.1.0, SVG Export Plug-In . SVG Version: 6.00 Build 0)  -->
<svg version="1.1" id="Слой_1" xmlns="http://www.w3.org/2000/svg" xmlns:xlink="http://www.w3.org/1999/xlink" x="0px" y="0px"
	 viewBox="0 0 82 43.1" style="enable-background:new 0 0 82 43.1;" xml:space="preserve">
<style type="text/css">
	.st0{fill:#FFFFFF;}
	.st1{fill:#FF9E0D;}
</style>
<path class="st0" d="M2,12C2,6.5,6.5,2,12,2h58c5.5,0,10,4.5,10,10v19c0,5.5-4.5,10-10,10H12C6.5,41,2,36.5,2,31V12z"/>
<path class="st1" d="M15,7h13c4.4,0,8,3.6,8,8v13c0,4.4-3.6,8-8,8H15c-4.4,0-8-3.6-8-8V15C7,10.6,10.6,7,15,7z"/>
<path class="st0" d="M28.5,24.5c0,4.2-3.5,7.5-7.7,7.5c-4.3,0-7.7-3.4-7.7-7.5c0-2.3,1.1-4.2,2.2-5.2c0.6-0.6,1.7-0.2,1.7,0.6v3.3
	c0,1.4,1.1,2.5,2.5,2.5c1.4,0,2.6-1.1,2.6-2.5c0-3.4-7-3.8-2.1-10.8c0.5-0.8,1.8-0.4,1.8,0.5C21.7,17,28.5,17.8,28.5,24.5z"/>
<path class="st1" d="M52.1,14.2h2v5.6h2.4v-5.6h2v13.3h-2v-6.2h-2.4v6.2h-2V14.2z M63.5,27.6c-0.2,0-0.5,0-0.7-0.1
	c-0.2,0-0.5-0.1-0.7-0.2c-0.2-0.1-0.4-0.3-0.6-0.5c-0.2-0.2-0.4-0.5-0.5-0.8c-0.1-0.3-0.3-0.8-0.3-1.3c-0.1-0.5-0.1-1.1-0.1-1.8
	v-1.7c0-0.7,0-1.3,0.1-1.8c0.1-0.5,0.2-0.9,0.4-1.3c0.2-0.3,0.3-0.6,0.5-0.8c0.2-0.2,0.4-0.4,0.6-0.5c0.2-0.1,0.5-0.2,0.7-0.2
	c0.2,0,0.5-0.1,0.7-0.1c0.2,0,0.4,0,0.7,0c0.2,0,0.5,0.1,0.7,0.2c0.2,0.1,0.4,0.3,0.6,0.5c0.2,0.2,0.4,0.5,0.5,0.8
	c0.2,0.3,0.3,0.8,0.4,1.3c0.1,0.5,0.1,1.1,0.1,1.8v1.7c0,0.7,0,1.3-0.1,1.8c-0.1,0.5-0.2,0.9-0.4,1.3c-0.2,0.3-0.3,0.6-0.5,0.9
	c-0.2,0.2-0.4,0.4-0.6,0.5c-0.2,0.1-0.4,0.2-0.7,0.2C63.9,27.6,63.7,27.6,63.5,27.6z M63.5,26.1c0.2,0,0.3,0,0.4-0.1
	c0.1-0.1,0.2-0.2,0.3-0.5c0.1-0.2,0.1-0.5,0.2-0.8c0-0.3,0.1-0.8,0.1-1.3v-2.6c0-0.5,0-0.9-0.1-1.3c0-0.3-0.1-0.6-0.2-0.8
	c-0.1-0.2-0.2-0.4-0.3-0.5c-0.1-0.1-0.3-0.1-0.4-0.1c-0.2,0-0.3,0-0.5,0.1c-0.1,0.1-0.2,0.2-0.3,0.5c-0.1,0.2-0.1,0.5-0.2,0.8
	c0,0.3-0.1,0.8-0.1,1.3v2.6c0,0.5,0,0.9,0.1,1.3c0,0.3,0.1,0.6,0.2,0.8c0.1,0.2,0.2,0.4,0.3,0.5C63.1,26,63.3,26.1,63.5,26.1z
	 M68.4,18.1h-0.8v-1.4h1L69,14h1.4v2.8h1.7v1.4h-1.7V25c0,0.2,0,0.4,0.1,0.6c0,0.1,0.1,0.3,0.2,0.3c0.1,0.1,0.2,0.1,0.3,0.2
	c0.1,0,0.2,0,0.3,0c0.2,0,0.4,0,0.5-0.1c0.2,0,0.3-0.1,0.4-0.2v1.1c-0.1,0.1-0.2,0.3-0.4,0.3c-0.1,0.1-0.3,0.2-0.4,0.2
	c-0.1,0.1-0.3,0.1-0.4,0.1c-0.1,0-0.3,0-0.4,0c-0.3,0-0.5,0-0.8-0.1c-0.3-0.1-0.5-0.2-0.7-0.4c-0.2-0.2-0.4-0.5-0.5-0.9
	c-0.1-0.4-0.2-0.8-0.2-1.4V18.1z"/>
<path class="st1" d="M12,4h58V0H12V4z M78,12v19h4V12H78z M70,39H12v4h58V39z M4,31V12H0v19H4z M12,39c-4.4,0-8-3.6-8-8H0
	c0,6.6,5.4,12,12,12V39z M78,31c0,4.4-3.6,8-8,8v4c6.6,0,12-5.4,12-12H78z M70,4c4.4,0,8,3.6,8,8h4c0-6.6-5.4-12-12-12V4z M12,0
	C5.4,0,0,5.4,0,12h4c0-4.4,3.6-8,8-8V0z"/>
</svg>
