<svg width="29" height="29" viewBox="0 0 29 29" fill="none" xmlns="http://www.w3.org/2000/svg">
<rect width="29" height="29" rx="8" fill="#DC6DFF"/>
<path d="M7.04803 7.09302C7.04803 5.93696 7.99674 5 9.09929 5C10.2595 5 11.1505 5.93696 11.1505 7.09302C11.1505 8.24909 10.2595 9.18605 9.09929 9.18605C7.99674 9.18605 7.04803 8.24909 7.04803 7.09302ZM6.82047 20.6977V18.0814H6.24997C5.89997 18.0814 5.65286 17.7315 5.76343 17.3914L6.7615 14.3368L5.84292 15.573C5.50062 16.0342 4.85735 16.1257 4.40608 15.7758C3.95464 15.4259 3.86618 14.7685 4.20842 14.3107L6.09612 11.7402C6.81534 10.8016 7.93905 10.2326 9.12814 10.2326C10.3204 10.2326 11.4422 10.8016 12.1601 11.7402L14.0479 14.3107C14.3909 14.7685 14.3011 15.4259 13.8492 15.7758C13.4005 16.1257 12.7563 16.0342 12.4134 15.573L11.4967 14.3401L12.4646 17.3914C12.6025 17.7315 12.3557 18.0814 12.0063 18.0814H11.4358V20.6977C11.4358 21.2765 10.9775 21.7442 10.4102 21.7442C9.84287 21.7442 9.38454 21.2765 9.38454 20.6977V18.0814H8.87173V20.6977C8.87173 21.2765 8.4134 21.7442 7.8461 21.7442C7.2788 21.7442 6.82047 21.2765 6.82047 20.6977ZM17.3332 7.09302C17.3332 5.93696 18.253 5 19.3844 5C20.5158 5 21.4357 5.93696 21.4357 7.09302C21.4357 8.24909 20.5158 9.18605 19.3844 9.18605C18.253 9.18605 17.3332 8.24909 17.3332 7.09302ZM18.1024 21.7442C17.5351 21.7442 17.0768 21.2765 17.0768 20.6977V14.8274L16.6633 15.4978C16.362 15.9884 15.7274 16.1355 15.221 15.8281C14.7691 15.5207 14.6249 14.8732 14.9261 14.3565L16.5832 11.7009C17.1473 10.7852 18.1312 10.2031 19.1857 10.2031H19.5831C20.6408 10.2031 21.6216 10.7852 22.1857 11.7009L23.8427 14.3565C24.144 14.8732 23.9997 15.5207 23.519 15.8281C23.0414 16.1355 22.4068 15.9884 22.1055 15.4978L21.6921 14.8274V20.6977C21.6921 21.2765 21.2338 21.7442 20.6665 21.7442C20.0992 21.7442 19.6408 21.2765 19.6408 20.6977V16.5116H19.128V20.6977C19.128 21.2765 18.6697 21.7442 18.1024 21.7442Z" fill="white"/>
</svg>
