<svg width="57" height="57" viewBox="0 0 57 57" fill="none" xmlns="http://www.w3.org/2000/svg">
<circle opacity="0.2" cx="28.5" cy="28.5" r="28.5" fill="#9672DE"/>
<path d="M15.8931 18.36C15.8931 16.5041 17.4161 15 19.1861 15C21.0486 15 22.479 16.5041 22.479 18.36C22.479 20.2159 21.0486 21.72 19.1861 21.72C17.4161 21.72 15.8931 20.2159 15.8931 18.36ZM15.5278 40.2V36H14.6119C14.0501 36 13.6534 35.4382 13.8309 34.8922L15.4331 29.9887L13.9585 31.9732C13.409 32.7135 12.3763 32.8605 11.6519 32.2987C10.9272 31.737 10.7852 30.6818 11.3346 29.9468L14.365 25.8202C15.5196 24.3135 17.3235 23.4 19.2324 23.4C21.1464 23.4 22.9472 24.3135 24.0998 25.8202L27.1303 29.9468C27.6808 30.6818 27.5368 31.737 26.8113 32.2987C26.091 32.8605 25.0568 32.7135 24.5062 31.9732L23.0347 29.994L24.5886 34.8922C24.8098 35.4382 24.4136 36 23.8528 36H22.9369V40.2C22.9369 41.1292 22.2012 41.88 21.2905 41.88C20.3798 41.88 19.644 41.1292 19.644 40.2V36H18.8207V40.2C18.8207 41.1292 18.085 41.88 17.1743 41.88C16.2636 41.88 15.5278 41.1292 15.5278 40.2ZM32.4042 18.36C32.4042 16.5041 33.8808 15 35.6971 15C37.5134 15 38.9901 16.5041 38.9901 18.36C38.9901 20.2159 37.5134 21.72 35.6971 21.72C33.8808 21.72 32.4042 20.2159 32.4042 18.36ZM33.639 41.88C32.7283 41.88 31.9925 41.1292 31.9925 40.2V30.7762L31.3288 31.8525C30.8452 32.64 29.8264 32.8762 29.0135 32.3827C28.288 31.8892 28.0564 30.8497 28.5401 30.0203L31.2002 25.7572C32.1057 24.2872 33.6853 23.3527 35.3781 23.3527H36.0161C37.7141 23.3527 39.2885 24.2872 40.1941 25.7572L42.8541 30.0203C43.3378 30.8497 43.1063 31.8892 42.3345 32.3827C41.5678 32.8762 40.5491 32.64 40.0654 31.8525L39.4017 30.7762V40.2C39.4017 41.1292 38.6659 41.88 37.7552 41.88C36.8445 41.88 36.1087 41.1292 36.1087 40.2V33.48H35.2855V40.2C35.2855 41.1292 34.5497 41.88 33.639 41.88Z" fill="#9672DE"/>
</svg>
