<svg width="33" height="33" viewBox="0 0 33 33" fill="none" xmlns="http://www.w3.org/2000/svg">
<g filter="url(#filter0_d_66_1955)">
<path d="M29 12.4875C29 5.59375 23.4 0 16.5 0C9.6 0 4 5.59375 4 12.4875C4 16.2844 5.725 19.7062 8.425 22.0031C8.45 22.0281 8.475 22.0281 8.475 22.0531C8.7 22.2281 8.925 22.4031 9.175 22.5781C9.3 22.6531 9.4 22.7516 9.525 22.8516C11.5907 24.2521 14.0292 25.0006 16.525 25C19.0208 25.0006 21.4593 24.2521 23.525 22.8516C23.65 22.7766 23.75 22.6781 23.875 22.6016C24.1 22.4281 24.35 22.2531 24.575 22.0781C24.6 22.0531 24.625 22.0531 24.625 22.0281C27.275 19.7047 29 16.2844 29 12.4875ZM16.5 23.4266C14.15 23.4266 12 22.6766 10.225 21.4281C10.25 21.2281 10.3 21.0297 10.35 20.8297C10.499 20.2877 10.7174 19.7672 11 19.2812C11.275 18.8062 11.6 18.3813 12 18.0063C12.375 17.6313 12.825 17.2828 13.275 17.0078C13.75 16.7328 14.25 16.5328 14.8 16.3828C15.3543 16.2334 15.9259 16.1583 16.5 16.1594C18.2041 16.1473 19.8457 16.801 21.075 17.9813C21.65 18.5563 22.1 19.2313 22.425 20.0047C22.6 20.4547 22.725 20.9297 22.8 21.4281C20.955 22.7252 18.7554 23.423 16.5 23.4266ZM12.675 11.8641C12.4547 11.3597 12.3439 10.8144 12.35 10.2641C12.35 9.71562 12.45 9.16562 12.675 8.66562C12.9 8.16562 13.2 7.71719 13.575 7.34219C13.95 6.96719 14.4 6.66875 14.9 6.44375C15.4 6.21875 15.95 6.11875 16.5 6.11875C17.075 6.11875 17.6 6.21875 18.1 6.44375C18.6 6.66875 19.05 6.96875 19.425 7.34219C19.8 7.71719 20.1 8.16719 20.325 8.66562C20.55 9.16562 20.65 9.71562 20.65 10.2641C20.65 10.8391 20.55 11.3641 20.325 11.8625C20.1079 12.3551 19.8029 12.8041 19.425 13.1875C19.0415 13.5648 18.5925 13.8693 18.1 14.0859C17.0669 14.5105 15.9081 14.5105 14.875 14.0859C14.3825 13.8693 13.9335 13.5648 13.55 13.1875C13.1716 12.8097 12.8739 12.3589 12.675 11.8625V11.8641ZM24.275 20.1547C24.275 20.1047 24.25 20.0797 24.25 20.0297C24.0041 19.2475 23.6417 18.5069 23.175 17.8328C22.7078 17.1537 22.1337 16.5548 21.475 16.0594C20.9719 15.6809 20.4266 15.3621 19.85 15.1094C20.1123 14.9363 20.3554 14.7357 20.575 14.5109C20.9477 14.143 21.275 13.7317 21.55 13.2859C22.1037 12.3763 22.3896 11.3289 22.375 10.2641C22.3827 9.4758 22.2296 8.69425 21.925 7.96719C21.6243 7.26662 21.1914 6.63056 20.65 6.09375C20.1094 5.56255 19.4732 5.13842 18.775 4.84375C18.0467 4.53968 17.2642 4.3871 16.475 4.39531C15.6857 4.38759 14.9032 4.5407 14.175 4.84531C13.4707 5.13936 12.833 5.57248 12.3 6.11875C11.7688 6.65873 11.3447 7.2944 11.05 7.99219C10.7454 8.71925 10.5923 9.5008 10.6 10.2891C10.6 10.8391 10.675 11.3641 10.825 11.8625C10.975 12.3875 11.175 12.8625 11.45 13.3109C11.7 13.7609 12.05 14.1609 12.425 14.5359C12.65 14.7609 12.9 14.9594 13.175 15.1344C12.5966 15.3938 12.0511 15.7211 11.55 16.1094C10.9 16.6094 10.325 17.2078 9.85 17.8578C9.37853 18.5291 9.01575 19.2705 8.775 20.0547C8.75 20.1047 8.75 20.1547 8.75 20.1797C6.775 18.1812 5.55 15.4844 5.55 12.4875C5.55 6.46875 10.475 1.54844 16.5 1.54844C22.525 1.54844 27.45 6.46875 27.45 12.4875C27.4467 15.3624 26.3052 18.1191 24.275 20.1547Z" fill="white"/>
</g>
<defs>
<filter id="filter0_d_66_1955" x="0" y="0" width="33" height="33" filterUnits="userSpaceOnUse" color-interpolation-filters="sRGB">
<feFlood flood-opacity="0" result="BackgroundImageFix"/>
<feColorMatrix in="SourceAlpha" type="matrix" values="0 0 0 0 0 0 0 0 0 0 0 0 0 0 0 0 0 0 127 0" result="hardAlpha"/>
<feOffset dy="4"/>
<feGaussianBlur stdDeviation="2"/>
<feComposite in2="hardAlpha" operator="out"/>
<feColorMatrix type="matrix" values="0 0 0 0 0 0 0 0 0 0 0 0 0 0 0 0 0 0 0.25 0"/>
<feBlend mode="normal" in2="BackgroundImageFix" result="effect1_dropShadow_66_1955"/>
<feBlend mode="normal" in="SourceGraphic" in2="effect1_dropShadow_66_1955" result="shape"/>
</filter>
</defs>
</svg>
