<svg width="29" height="29" viewBox="0 0 29 29" fill="none" xmlns="http://www.w3.org/2000/svg">
<rect width="29" height="29" rx="8" fill="#DC6DFF"/>
<path d="M13.25 6.75H10.5V4H13.25V6.75ZM18.75 4H16V6.75H18.75V4ZM10.5 17.75H13.25V15H10.5V17.75ZM24.25 12.25V9.5H21.5V12.25H24.25ZM24.25 17.75V15H21.5V17.75H24.25ZM16 17.75H18.75V15H16V17.75ZM24.25 4H21.5V6.75H24.25V4ZM16 9.5V6.75H13.25V9.5H16ZM7.75 12.25V9.5H10.5V6.75H7.75V5.375C7.75 4.61875 7.13125 4 6.375 4C5.61875 4 5 4.61875 5 5.375V24.625C5 25.3813 5.61875 26 6.375 26C7.13125 26 7.75 25.3813 7.75 24.625V15H10.5V12.25H7.75ZM18.75 15H21.5V12.25H18.75V15ZM13.25 12.25V15H16V12.25H13.25ZM10.5 9.5V12.25H13.25V9.5H10.5ZM16 12.25H18.75V9.5H16V12.25ZM18.75 6.75V9.5H21.5V6.75H18.75Z" fill="white"/>
</svg>
