<svg width="57" height="57" viewBox="0 0 57 57" fill="none" xmlns="http://www.w3.org/2000/svg">
<circle opacity="0.2" cx="28.5" cy="28.5" r="28.5" fill="#0094FF"/>
<path d="M35.3047 21.7891H33.4727C33.0742 21.7891 32.6953 21.9805 32.4609 22.3086L26.3203 30.8242L23.5391 26.9648C23.3047 26.6406 22.9297 26.4453 22.5273 26.4453H20.6953C20.4414 26.4453 20.293 26.7344 20.4414 26.9414L25.3086 33.6914C25.4236 33.8519 25.5752 33.9827 25.7508 34.0729C25.9264 34.1631 26.1209 34.2101 26.3184 34.2101C26.5158 34.2101 26.7104 34.1631 26.886 34.0729C27.0616 33.9827 27.2131 33.8519 27.3281 33.6914L35.5547 22.2852C35.707 22.0781 35.5586 21.7891 35.3047 21.7891V21.7891Z" fill="#0094FF"/>
<path d="M28 10.5C18.3359 10.5 10.5 18.3359 10.5 28C10.5 37.6641 18.3359 45.5 28 45.5C37.6641 45.5 45.5 37.6641 45.5 28C45.5 18.3359 37.6641 10.5 28 10.5ZM28 42.5312C19.9766 42.5312 13.4688 36.0234 13.4688 28C13.4688 19.9766 19.9766 13.4688 28 13.4688C36.0234 13.4688 42.5312 19.9766 42.5312 28C42.5312 36.0234 36.0234 42.5312 28 42.5312Z" fill="#0094FF"/>
</svg>
