<svg width="57" height="57" viewBox="0 0 57 57" fill="none" xmlns="http://www.w3.org/2000/svg">
<circle opacity="0.2" cx="28.5" cy="28.5" r="28.5" fill="#64CFCB"/>
<path d="M26.4837 14.4039C26.3483 14.3785 26.2099 14.3655 26.0724 14.3655C25.1505 14.3655 24.311 14.9352 23.8817 15.8518C23.8096 16.0061 23.635 16.0833 23.4716 16.0362C21.242 15.3732 19.1249 17.1737 18.9426 19.5744C18.9301 19.7372 18.8054 19.8687 18.6436 19.8898C17.2462 20.072 16.1926 21.3937 16.1926 22.9641C16.1926 23.7738 16.4729 24.5404 16.982 25.1243C17.0431 25.194 17.0734 25.2858 17.0657 25.3784C17.0585 25.4712 17.014 25.5565 16.9426 25.6154C15.8082 26.5587 15.1572 27.9964 15.1572 29.5592C15.1572 31.2943 15.9979 32.9227 17.3508 33.8081C17.4676 33.8846 17.527 34.0242 17.5008 34.1612C17.2594 35.4209 17.6804 36.7772 18.5992 37.7005C19.3989 38.5046 20.447 38.8553 21.4756 38.664C21.497 38.6601 21.5184 38.6582 21.5391 38.6582C21.6994 38.6582 21.8427 38.7704 21.8764 38.9332C22.1752 40.381 23.4151 41.2455 25.193 41.2455C25.5159 41.2455 25.8334 41.1885 26.137 41.0767C26.9159 40.788 27.4395 40.0171 27.4395 39.1587V37.248C27.3972 37.0144 27.0243 35.2672 25.4745 35.0687C24.4517 35.9944 23.2247 36.1035 23.1721 36.1082C23.1627 36.1089 23.1536 36.1091 23.1444 36.1091C22.9663 36.1091 22.8156 35.9723 22.8012 35.7918C22.7862 35.6019 22.9276 35.4363 23.1175 35.4209C23.1271 35.4202 24.2031 35.3197 25.0543 34.5211C26.0068 33.6276 25.6442 32.6372 25.6284 32.5954C25.5608 32.4182 25.6483 32.2187 25.8248 32.1502C26.0005 32.0833 26.1998 32.1667 26.2697 32.3432C26.2897 32.3932 26.6767 33.4143 25.9894 34.4711C26.6291 34.6612 27.1015 35.0702 27.4397 35.5356L27.4399 27.3077C25.5101 27.1034 24.8146 25.9688 24.7846 25.9183C24.6877 25.7543 24.7418 25.543 24.906 25.4462C25.0695 25.3507 25.2793 25.4031 25.3765 25.5654C25.4012 25.6058 25.932 26.4318 27.4397 26.6152L27.4399 19.6065C27.4269 19.4803 27.2397 17.892 26.0043 17.4685C25.8245 17.4064 25.7284 17.2108 25.7899 17.0305C25.8512 16.8507 26.0469 16.7552 26.2277 16.8161C26.7726 17.0028 27.1616 17.3406 27.4399 17.7168V15.6281C27.4397 15.024 27.0375 14.5093 26.4837 14.4043V14.4039ZM23.2115 37.1631C23.4014 37.1631 23.5555 37.3162 23.5564 37.5059C23.5564 37.522 23.5754 38.3467 24.1961 38.804C25.0712 39.4487 25.9049 39.1497 25.9392 39.1362C26.1173 39.0703 26.3154 39.159 26.3829 39.336C26.4503 39.5126 26.3637 39.7105 26.1873 39.7792C26.1625 39.7889 25.8548 39.9047 25.4029 39.9047C24.9591 39.9047 24.3767 39.7932 23.7877 39.3588C22.8793 38.6903 22.8675 37.5561 22.8675 37.5078C22.867 37.3177 23.0209 37.1633 23.2115 37.1631L23.2115 37.1631ZM23.5204 30.7974C23.4718 30.8205 22.7377 31.1652 21.8273 31.1652C21.659 31.1652 21.4845 31.1515 21.3074 31.1239C21.4001 31.3306 21.4735 31.5643 21.5028 31.8246C21.5848 32.5518 21.3175 33.2831 20.7081 33.9989C20.6398 34.079 20.5429 34.1203 20.4456 34.1203C20.3667 34.1203 20.2872 34.0934 20.2222 34.0384C20.0775 33.9151 20.06 33.6973 20.1833 33.5526C20.6624 32.9905 20.8761 32.4376 20.8184 31.909C20.7343 31.1355 20.0905 30.6383 20.084 30.6335C20.0837 30.6332 20.0833 30.6328 20.083 30.6325C18.5063 29.5121 18.6508 27.6839 18.9482 26.8722C19.0136 26.6933 19.2114 26.6012 19.3902 26.6671C19.5689 26.7323 19.6604 26.9303 19.5953 27.1085C19.5657 27.1914 18.9453 28.9876 20.4893 30.0763C21.6609 30.9023 23.2069 30.1843 23.222 30.1766C23.3936 30.0956 23.5994 30.1677 23.6814 30.3393C23.7636 30.51 23.6915 30.715 23.5203 30.7975L23.5204 30.7974ZM24.6382 22.3487C24.5995 22.5054 24.4593 22.6109 24.305 22.6109C24.2781 22.6109 24.2512 22.6078 24.224 22.6013C24.1781 22.5903 23.3562 22.3814 22.7377 21.577C22.6375 21.8816 22.4776 22.2118 22.2201 22.5234C21.6432 23.2213 20.7521 23.6297 19.5718 23.7369C19.5612 23.7379 19.5504 23.7384 19.5405 23.7384C19.3641 23.7384 19.2138 23.6035 19.1977 23.4247C19.1804 23.2352 19.3203 23.0677 19.51 23.0504C20.7261 22.9405 21.5478 22.4806 21.9514 21.6835C22.2329 21.1282 22.2139 20.5898 22.2089 20.5003C21.7651 18.9144 22.7565 17.9276 22.7995 17.8861C22.936 17.7536 23.1545 17.7568 23.2868 17.894C23.4192 18.0306 23.4156 18.2486 23.2788 18.3813C23.2495 18.4106 22.5252 19.1484 22.8815 20.3511C23.2608 21.6323 24.343 21.9201 24.3889 21.9319C24.5711 21.9783 24.6839 22.1646 24.6382 22.3487L24.6382 22.3487Z" fill="#64CFCB"/>
<path d="M39.9204 25.6154C39.8488 25.556 39.8045 25.4706 39.7973 25.3783C39.7901 25.2855 39.8202 25.1939 39.881 25.1242C40.3904 24.5408 40.6704 23.7738 40.6704 22.9641C40.6704 21.3936 39.6165 20.072 38.2194 19.8898C38.0574 19.8688 37.9326 19.7371 37.9204 19.5744C37.7382 17.1738 35.6208 15.3733 33.3914 16.0361C33.228 16.0832 33.0537 16.0061 32.9813 15.8517C32.5525 14.9351 31.7126 14.3657 30.7907 14.3657C30.6531 14.3657 30.5147 14.3787 30.3789 14.4044C29.8255 14.5094 29.4233 15.0241 29.4233 15.6277V17.7164C29.7017 17.3402 30.0909 17.0024 30.6356 16.8157C30.8152 16.7546 31.0116 16.85 31.0734 17.0301C31.1351 17.2099 31.0392 17.4061 30.8589 17.4681C29.6236 17.8917 29.4361 19.4804 29.4233 19.6061L29.4236 26.6148C30.9339 26.4314 31.4637 25.6028 31.4868 25.5648C31.5861 25.404 31.7969 25.3516 31.9592 25.449C32.1212 25.5468 32.1748 25.7552 32.0787 25.918C32.0486 25.9687 31.3532 27.1031 29.4233 27.3074L29.4236 35.5352C29.7616 35.0696 30.2344 34.6609 30.8738 34.4708C30.1866 33.4138 30.5736 32.3931 30.5935 32.3428C30.6637 32.1657 30.8647 32.0789 31.0411 32.1498C31.2173 32.2198 31.3036 32.4186 31.2349 32.595C31.2176 32.6402 30.8582 33.6285 31.8089 34.5208C32.6601 35.3194 33.7357 35.4198 33.7467 35.4205C33.9359 35.4371 34.0767 35.6032 34.0614 35.7924C34.0464 35.9722 33.8962 36.1088 33.7188 36.1088C33.7099 36.1088 33.7005 36.1085 33.6912 36.1078C33.6385 36.1032 32.4116 35.9941 31.3887 35.0683C29.8394 35.2669 29.4661 37.014 29.4238 37.2477V39.1586C29.4238 40.017 29.9473 40.7881 30.7264 41.0766C31.0298 41.1886 31.3471 41.2454 31.67 41.2454C33.4479 41.2454 34.6875 40.3807 34.9866 38.9331C35.0246 38.7494 35.2018 38.6326 35.3873 38.6639C36.415 38.8547 37.4641 38.5042 38.2638 37.7004C39.1826 36.7771 39.6033 35.421 39.3622 34.1611C39.3357 34.0239 39.3949 33.884 39.5122 33.808C40.8651 32.9226 41.7057 31.2943 41.7057 29.5592C41.706 27.9964 41.0553 26.5586 39.9204 25.6151L39.9204 25.6154ZM33.0754 39.3596C32.4864 39.7935 31.904 39.905 31.4602 39.905C31.008 39.905 30.7003 39.7891 30.6758 39.7795C30.4984 39.7105 30.4104 39.511 30.4797 39.3336C30.5487 39.1562 30.7489 39.0675 30.9256 39.1374C30.9583 39.1487 31.7917 39.4487 32.6662 38.8045C33.298 38.3393 33.3061 37.5156 33.3061 37.5074C33.3061 37.3172 33.4604 37.1631 33.6508 37.1631H33.6511C33.8412 37.1634 33.9958 37.3179 33.9953 37.5081C33.9956 37.5564 33.9838 38.6906 33.0754 39.3596L33.0754 39.3596ZM32.5578 22.6116C32.4023 22.6116 32.2614 22.5054 32.2232 22.3477C32.1787 22.1633 32.2917 21.9775 32.4758 21.9325C32.5268 21.9195 33.6045 21.6296 33.9828 20.3517C34.3391 19.149 33.6148 18.411 33.5838 18.38C33.4494 18.2464 33.4472 18.0286 33.5799 17.8935C33.7126 17.7582 33.929 17.755 34.0648 17.8863C34.1078 17.9279 35.0994 18.9142 34.6554 20.5003C34.6501 20.5876 34.6307 21.1273 34.9129 21.6835C35.3165 22.4806 36.1379 22.94 37.3543 23.0504C37.5437 23.0677 37.6838 23.235 37.6665 23.4246C37.6504 23.6037 37.5002 23.7383 37.3237 23.7383C37.3134 23.7383 37.3028 23.7381 37.2925 23.7369C36.1122 23.6297 35.2211 23.2218 34.6441 22.5234C34.3867 22.2119 34.2268 21.882 34.1266 21.577C33.5081 22.3816 32.6862 22.5902 32.6403 22.6013C32.6119 22.6085 32.5848 22.6117 32.5578 22.6117L32.5578 22.6116ZM36.78 30.632C36.7797 30.6323 36.7793 30.6328 36.779 30.633C36.7725 30.6383 36.1288 31.1347 36.0446 31.9085C35.9871 32.4369 36.2011 32.99 36.6797 33.5521C36.803 33.6968 36.7859 33.9146 36.6407 34.0379C36.5758 34.0929 36.4968 34.1199 36.4174 34.1199C36.3198 34.1199 36.2229 34.0787 36.1549 33.9985C35.5453 33.2831 35.2782 32.5518 35.3602 31.8241C35.3895 31.564 35.4626 31.3306 35.5556 31.1234C35.3785 31.1513 35.2037 31.1647 35.0357 31.1647C34.1248 31.165 33.3912 30.82 33.3426 30.7969C33.171 30.7145 33.0986 30.5085 33.1813 30.3373C33.264 30.1654 33.47 30.0936 33.6409 30.1758C33.6558 30.1828 35.2018 30.9008 36.3732 30.0751C37.9302 28.9767 37.2744 27.1262 37.2674 27.1074C37.202 26.9288 37.2936 26.7308 37.4724 26.6656C37.6515 26.5997 37.8491 26.6918 37.9145 26.8707C38.2121 27.6834 38.3563 29.5116 36.7798 30.632L36.78 30.632Z" fill="#64CFCB"/>
</svg>
