<svg width="29" height="29" viewBox="0 0 29 29" fill="none" xmlns="http://www.w3.org/2000/svg">
<rect width="29" height="29" rx="8" fill="#DC6DFF"/>
<path d="M12.4274 4.02862C12.3267 4.00966 12.2237 4 12.1214 4C11.4355 4 10.8109 4.4239 10.4914 5.10588C10.4377 5.22071 10.3079 5.27812 10.1863 5.24306C8.52736 4.74979 6.95211 6.08942 6.81653 7.87571C6.80723 7.99679 6.7144 8.09463 6.59402 8.11037C5.55431 8.24595 4.77037 9.22935 4.77037 10.3978C4.77037 11.0002 4.97892 11.5706 5.35774 12.0051C5.40317 12.0569 5.42571 12.1253 5.41999 12.1941C5.41462 12.2632 5.38153 12.3267 5.32841 12.3705C4.48435 13.0723 4 14.1421 4 15.3049C4 16.5959 4.62547 17.8075 5.63212 18.4662C5.71905 18.5231 5.76323 18.627 5.74373 18.729C5.56415 19.6662 5.87734 20.6754 6.56096 21.3624C7.15602 21.9606 7.93584 22.2216 8.70119 22.0792C8.71711 22.0764 8.73303 22.0749 8.74841 22.0749C8.86771 22.0749 8.97431 22.1585 8.99935 22.2796C9.22168 23.3568 10.1442 24 11.4671 24C11.7073 24 11.9436 23.9576 12.1695 23.8744C12.749 23.6596 13.1386 23.086 13.1386 22.4473V21.0257C13.1071 20.8519 12.8297 19.5519 11.6765 19.4042C10.9155 20.093 10.0026 20.1742 9.96343 20.1776C9.95645 20.1781 9.94965 20.1783 9.94286 20.1783C9.81032 20.1783 9.69817 20.0765 9.68745 19.9422C9.67636 19.8009 9.78153 19.6777 9.92282 19.6662C9.92998 19.6657 10.7306 19.5909 11.3639 18.9968C12.0726 18.3319 11.8028 17.595 11.791 17.5639C11.7408 17.4321 11.8059 17.2836 11.9372 17.2327C12.0679 17.1829 12.2162 17.245 12.2682 17.3763C12.2831 17.4135 12.571 18.1733 12.0597 18.9595C12.5357 19.101 12.8871 19.4053 13.1387 19.7515L13.1389 13.6297C11.703 13.4776 11.1856 12.6334 11.1632 12.5958C11.0912 12.4739 11.1314 12.3166 11.2536 12.2446C11.3752 12.1736 11.5313 12.2125 11.6036 12.3333C11.622 12.3633 12.0169 12.9779 13.1387 13.1144L13.1389 7.89955C13.1293 7.80565 12.9899 6.62393 12.0708 6.30877C11.937 6.26263 11.8654 6.11703 11.9112 5.98289C11.9568 5.8491 12.1024 5.77809 12.2369 5.82334C12.6424 5.96232 12.9318 6.21361 13.1389 6.49355V4.93945C13.1387 4.48997 12.8395 4.10702 12.4274 4.02885V4.02862ZM9.99275 20.9625C10.1341 20.9625 10.2487 21.0764 10.2494 21.2176C10.2494 21.2295 10.2635 21.8432 10.7254 22.1834C11.3765 22.6631 11.9967 22.4406 12.0223 22.4306C12.1548 22.3816 12.3022 22.4476 12.3525 22.5792C12.4026 22.7107 12.3382 22.8579 12.2069 22.909C12.1885 22.9162 11.9595 23.0024 11.6233 23.0024C11.2931 23.0024 10.8597 22.9194 10.4215 22.5962C9.74557 22.0988 9.73683 21.2549 9.73683 21.219C9.73647 21.0775 9.85094 20.9627 9.99278 20.9625L9.99275 20.9625ZM10.2226 16.2262C10.1865 16.2433 9.64021 16.4998 8.96286 16.4998C8.83766 16.4998 8.70781 16.4896 8.57599 16.4691C8.64503 16.6229 8.69958 16.7967 8.7214 16.9904C8.78239 17.5315 8.5835 18.0756 8.13009 18.6082C8.07929 18.6678 8.00721 18.6986 7.93478 18.6986C7.87611 18.6986 7.81691 18.6785 7.76862 18.6376C7.66094 18.5458 7.64789 18.3838 7.73964 18.2761C8.09611 17.8579 8.25512 17.4466 8.21218 17.0532C8.14957 16.4777 7.67059 16.1078 7.66574 16.1042C7.66556 16.104 7.6652 16.1036 7.66502 16.1035C6.49188 15.2698 6.59939 13.9096 6.82064 13.3056C6.86929 13.1725 7.01649 13.104 7.14957 13.153C7.28246 13.2015 7.3506 13.3488 7.30213 13.4814C7.28013 13.5431 6.81852 14.8795 7.9673 15.6896C8.83906 16.3042 9.98931 15.7699 10.0006 15.7642C10.1283 15.7039 10.2814 15.7576 10.3424 15.8853C10.4035 16.0123 10.3499 16.1649 10.2225 16.2262L10.2226 16.2262ZM11.0543 9.93988C11.0255 10.0565 10.9212 10.135 10.8064 10.135C10.7863 10.135 10.7663 10.1327 10.7461 10.1279C10.7119 10.1196 10.1004 9.96421 9.64023 9.36572C9.56564 9.59234 9.4467 9.83807 9.25514 10.0699C8.82588 10.5891 8.16286 10.893 7.28464 10.9728C7.27677 10.9735 7.26872 10.9739 7.26139 10.9739C7.13011 10.9739 7.01832 10.8735 7.00634 10.7405C6.99346 10.5995 7.09756 10.4748 7.23868 10.462C8.14354 10.3802 8.75486 10.0381 9.05519 9.44497C9.26463 9.0318 9.2505 8.63117 9.24675 8.5646C8.91657 7.38463 9.65419 6.65042 9.68621 6.61951C9.7878 6.52096 9.95038 6.52328 10.0488 6.62541C10.1473 6.72701 10.1446 6.88923 10.0429 6.98797C10.021 7.00979 9.48213 7.55872 9.7472 8.45356C10.0294 9.40687 10.8347 9.62097 10.8688 9.62977C11.0044 9.66429 11.0883 9.8029 11.0543 9.93991L11.0543 9.93988Z" fill="white"/>
<path d="M22.4249 12.3704C22.3716 12.3262 22.3387 12.2627 22.3334 12.1941C22.328 12.125 22.3504 12.0569 22.3956 12.005C22.7746 11.5709 22.983 11.0002 22.983 10.3977C22.983 9.22923 22.1989 8.24589 21.1593 8.11031C21.0388 8.09475 20.9459 7.99673 20.9368 7.87564C20.8012 6.08953 19.2259 4.74986 17.5671 5.243C17.4455 5.27806 17.3158 5.22064 17.2619 5.10582C16.9429 4.4238 16.3179 4.00012 15.632 4.00012C15.5297 4.00012 15.4266 4.00978 15.3256 4.02892C14.9138 4.10708 14.6146 4.49001 14.6146 4.93914V6.49324C14.8217 6.21332 15.1113 5.96201 15.5166 5.82304C15.6502 5.77761 15.7964 5.84862 15.8423 5.98258C15.8883 6.11637 15.8169 6.26232 15.6828 6.30847C14.7636 6.62362 14.6241 7.8057 14.6146 7.89924L14.6148 13.1141C15.7386 12.9776 16.1328 12.3611 16.1499 12.3328C16.2238 12.2132 16.3807 12.1742 16.5014 12.2466C16.622 12.3194 16.6618 12.4745 16.5903 12.5956C16.5679 12.6333 16.0505 13.4774 14.6146 13.6294L14.6148 19.7513C14.8663 19.4048 15.2181 19.1007 15.6939 18.9593C15.1825 18.1728 15.4705 17.4134 15.4853 17.376C15.5375 17.2442 15.6871 17.1796 15.8183 17.2324C15.9494 17.2844 16.0137 17.4323 15.9625 17.5636C15.9496 17.5973 15.6822 18.3325 16.3896 18.9965C17.023 19.5907 17.8232 19.6654 17.8314 19.6659C17.9722 19.6783 18.077 19.8019 18.0655 19.9426C18.0544 20.0764 17.9426 20.178 17.8106 20.178C17.804 20.178 17.7971 20.1778 17.7901 20.1773C17.7509 20.1739 16.838 20.0927 16.077 19.4039C14.9242 19.5516 14.6464 20.8516 14.6149 21.0254V22.4472C14.6149 23.0859 15.0045 23.6597 15.5842 23.8743C15.8099 23.9577 16.046 23.9999 16.2862 23.9999C17.6091 23.9999 18.5314 23.3565 18.754 22.2795C18.7822 22.1428 18.914 22.0559 19.0521 22.0791C19.8167 22.2211 20.5973 21.9604 21.1924 21.3623C21.876 20.6753 22.189 19.6663 22.0096 18.7289C21.9899 18.6268 22.0339 18.5227 22.1212 18.4662C23.1278 17.8074 23.7533 16.5958 23.7533 15.3048C23.7535 14.142 23.2693 13.0723 22.4249 12.3702L22.4249 12.3704ZM17.3319 22.5968C16.8937 22.9196 16.4603 23.0026 16.1302 23.0026C15.7937 23.0026 15.5648 22.9164 15.5465 22.9092C15.4145 22.8579 15.3491 22.7094 15.4006 22.5774C15.4519 22.4454 15.6009 22.3794 15.7324 22.4315C15.7567 22.4399 16.3768 22.6631 17.0275 22.1838C17.4976 21.8377 17.5036 21.2247 17.5036 21.2186C17.5036 21.0772 17.6184 20.9625 17.7601 20.9625H17.7603C17.9017 20.9627 18.0168 21.0777 18.0164 21.2192C18.0166 21.2551 18.0078 22.099 17.3319 22.5968L17.3319 22.5968ZM16.9468 10.1355C16.8311 10.1355 16.7263 10.0564 16.6978 9.93911C16.6648 9.80192 16.7488 9.66366 16.8858 9.63021C16.9238 9.62056 17.7256 9.40485 18.0071 8.45401C18.2722 7.55917 17.7333 7.01008 17.7102 6.987C17.6102 6.88755 17.6086 6.72551 17.7073 6.62499C17.8061 6.52429 17.967 6.52196 18.0681 6.61962C18.1001 6.65056 18.8379 7.38442 18.5075 8.56457C18.5036 8.6295 18.4891 9.03106 18.6991 9.44494C18.9994 10.038 19.6106 10.3798 20.5156 10.4619C20.6566 10.4748 20.7608 10.5993 20.748 10.7404C20.736 10.8737 20.6242 10.9738 20.4929 10.9738C20.4852 10.9738 20.4773 10.9737 20.4696 10.9728C19.5914 10.893 18.9284 10.5895 18.4992 10.0699C18.3076 9.83806 18.1887 9.59266 18.1141 9.36569C17.6538 9.96433 17.0423 10.1196 17.0082 10.1278C16.9871 10.1332 16.9669 10.1355 16.9468 10.1355L16.9468 10.1355ZM20.0883 16.1031C20.0881 16.1033 20.0878 16.1036 20.0876 16.1038C20.0828 16.1077 19.6038 16.4771 19.5412 17.0528C19.4984 17.446 19.6576 17.8575 20.0137 18.2757C20.1054 18.3834 20.0927 18.5454 19.9847 18.6372C19.9364 18.6781 19.8776 18.6982 19.8186 18.6982C19.7459 18.6982 19.6739 18.6676 19.6232 18.6078C19.1697 18.0756 18.9709 17.5315 19.0319 16.9901C19.0538 16.7965 19.1081 16.6229 19.1773 16.4687C19.0455 16.4894 18.9155 16.4994 18.7905 16.4994C18.1128 16.4996 17.5669 16.2429 17.5307 16.2258C17.403 16.1644 17.3492 16.0111 17.4107 15.8838C17.4723 15.7559 17.6255 15.7024 17.7527 15.7636C17.7638 15.7688 18.914 16.303 19.7856 15.6887C20.9441 14.8714 20.4562 13.4946 20.451 13.4806C20.4023 13.3477 20.4705 13.2003 20.6035 13.1519C20.7368 13.1029 20.8838 13.1714 20.9325 13.3044C21.1539 13.9092 21.2612 15.2694 20.0882 16.1031L20.0883 16.1031Z" fill="white"/>
</svg>
