<svg width="57" height="57" viewBox="0 0 57 57" fill="none" xmlns="http://www.w3.org/2000/svg">
<circle opacity="0.2" cx="28.5" cy="28.5" r="28.5" fill="#F5E54E"/>
<path d="M47.0283 23.7303C45.5187 19.4654 45.1412 15.6912 40.0459 17.465C39.6308 17.6159 39.2532 17.767 38.9515 17.9557H30.2708C29.9311 17.767 29.5915 17.6161 29.1764 17.465C24.081 15.6534 23.7414 19.4277 22.194 23.7303C21.7788 24.8627 21.5524 25.995 21.4392 27.0139H29.1764C29.4784 26.863 29.7804 26.7495 30.12 26.6363C31.1768 26.2588 32.1203 26.0703 32.9507 26.0703C33.9319 26.0703 34.7246 26.2967 35.3662 26.6742H38.6121V26.7119C40.1216 30.9769 43.2543 33.7697 45.5567 32.9772C47.8967 32.1469 48.5762 27.9953 47.0286 23.7303L47.0283 23.7303ZM30.5348 23.1264C30.5348 23.2396 30.4593 23.3528 30.3461 23.3528H28.8365V24.8624C28.8365 24.9756 28.7233 25.0888 28.6101 25.0888H27.4401C27.3269 25.0888 27.2514 25.0132 27.2514 24.8624V23.3528H25.7418C25.6286 23.3528 25.5154 23.2396 25.5154 23.1264V21.9564C25.5154 21.8432 25.6286 21.7677 25.7418 21.7677H27.2514V20.2581C27.2514 20.1449 27.3269 20.0317 27.4401 20.0317H28.6101C28.7233 20.0317 28.8365 20.1449 28.8365 20.2581V21.7677H30.3461C30.4593 21.7677 30.5348 21.8432 30.5348 21.9564V23.1264ZM41.3669 19.5785C41.933 19.5785 42.3482 20.0314 42.3482 20.5598C42.3482 21.0882 41.8953 21.541 41.3669 21.541C40.8009 21.541 40.3857 21.0882 40.3857 20.5598C40.3857 20.0316 40.8385 19.5785 41.3669 19.5785ZM39.4042 23.5416C38.8382 23.5416 38.423 23.0887 38.423 22.5603C38.423 21.9943 38.8758 21.5791 39.4042 21.5791C39.9327 21.5791 40.3855 22.0319 40.3855 22.5603C40.3857 23.0887 39.9706 23.5416 39.4042 23.5416ZM41.3669 25.5419C40.8009 25.5419 40.3857 25.0891 40.3857 24.5228C40.3857 23.9568 40.8385 23.5416 41.3669 23.5416C41.933 23.5416 42.3482 23.9944 42.3482 24.5228C42.3861 25.0891 41.933 25.5419 41.3669 25.5419ZM43.3296 23.5416C42.7636 23.5416 42.3484 23.0887 42.3484 22.5603C42.3484 21.9943 42.8012 21.5791 43.3296 21.5791C43.858 21.5791 44.3108 22.0319 44.3108 22.5603C44.3488 23.0887 43.8957 23.5416 43.3296 23.5416Z" fill="#F7E547"/>
<path d="M30.6858 28.2217C30.2706 28.3725 29.893 28.5237 29.5914 28.7124H20.9106C20.571 28.5237 20.2314 28.3728 19.8162 28.2217C14.6832 26.4478 14.3433 30.222 12.8338 34.487C11.2863 38.7517 11.9658 42.9036 14.2681 43.7339C16.6081 44.5643 19.7028 41.7713 21.2505 37.4686V37.431H29.2142V37.4686C30.7237 41.7336 33.8564 44.5265 36.1588 43.7339C38.4987 42.9036 39.1403 38.7897 37.6307 34.487C36.1212 30.222 35.7815 26.4479 30.6861 28.2217H30.6858ZM21.1369 33.8831C21.1369 33.9963 21.0614 34.1095 20.9105 34.1095H19.4009V35.619C19.4009 35.7323 19.3254 35.8455 19.1745 35.8455H18.0046C17.8914 35.8455 17.7782 35.7699 17.7782 35.619V34.1095H16.2686C16.1554 34.1095 16.0422 34.0339 16.0422 33.8831L16.0419 32.7131C16.0419 32.5999 16.1175 32.4867 16.2683 32.4867H17.7779V30.9771C17.7779 30.8639 17.8534 30.7507 18.0043 30.7507H19.1743C19.2875 30.7507 19.4007 30.8263 19.4007 30.9771V32.4867H20.9102C21.0234 32.4867 21.1367 32.5623 21.1367 32.7131L21.1369 33.8831ZM31.969 30.3352C32.535 30.3352 32.9503 30.788 32.9503 31.3164C32.9505 31.8448 32.5353 32.3356 31.969 32.3356C31.403 32.3356 30.9878 31.8827 30.9878 31.3543C30.9878 30.8259 31.4406 30.3352 31.969 30.3352ZM30.0066 34.2982C29.4406 34.2982 29.0254 33.8454 29.0254 33.317C29.0254 32.751 29.4782 32.3358 30.0066 32.3358C30.5726 32.3358 30.9879 32.7886 30.9879 33.317C31.0255 33.8451 30.5727 34.2982 30.0066 34.2982ZM31.969 36.2606C31.403 36.2606 30.9878 35.8078 30.9878 35.2794C30.9878 34.7134 31.4406 34.2982 31.969 34.2982C32.535 34.2982 32.9503 34.751 32.9503 35.2794C32.9882 35.8078 32.5353 36.2606 31.969 36.2606ZM33.9696 34.2982C33.4036 34.2982 32.9884 33.8454 32.9884 33.317C32.9884 32.751 33.4412 32.3358 33.9696 32.3358C34.5357 32.3358 34.9509 32.7886 34.9509 33.317C34.9509 33.8451 34.4981 34.2982 33.9696 34.2982Z" fill="#F7E547"/>
</svg>
