<svg width="29" height="29" viewBox="0 0 29 29" fill="none" xmlns="http://www.w3.org/2000/svg">
<rect width="29" height="29" rx="8" fill="#DC6DFF"/>
<path d="M23.5358 10.7536C22.6939 8.37497 22.4833 6.27005 19.6417 7.25934C19.4101 7.34347 19.1995 7.42775 19.0313 7.53303H14.1899C14.0005 7.42775 13.8111 7.34362 13.5795 7.25934C10.7378 6.249 10.5484 8.35396 9.68536 10.7536C9.4538 11.3851 9.32753 12.0167 9.2644 12.5849H13.5796C13.748 12.5007 13.9164 12.4375 14.1058 12.3743C14.6952 12.1638 15.2214 12.0586 15.6845 12.0586C16.2318 12.0586 16.6739 12.1849 17.0317 12.3955H18.842V12.4165C19.6839 14.7951 21.431 16.3527 22.7151 15.9107C24.0201 15.4476 24.3991 13.1323 23.536 10.7536L23.5358 10.7536ZM14.3372 10.4168C14.3372 10.4799 14.295 10.5431 14.2319 10.5431H13.39V11.385C13.39 11.4481 13.3268 11.5112 13.2637 11.5112H12.6112C12.5481 11.5112 12.5059 11.4691 12.5059 11.385V10.5431H11.664C11.6009 10.5431 11.5377 10.4799 11.5377 10.4168V9.76428C11.5377 9.70114 11.6009 9.659 11.664 9.659H12.5059V8.81709C12.5059 8.75396 12.5481 8.69082 12.6112 8.69082H13.2637C13.3268 8.69082 13.39 8.75396 13.39 8.81709V9.659H14.2319C14.295 9.659 14.3372 9.70114 14.3372 9.76428V10.4168ZM20.3784 8.43808C20.6941 8.43808 20.9256 8.69063 20.9256 8.98533C20.9256 9.28003 20.6731 9.53258 20.3784 9.53258C20.0627 9.53258 19.8311 9.28003 19.8311 8.98533C19.8311 8.69079 20.0837 8.43808 20.3784 8.43808ZM19.2838 10.6483C18.9681 10.6483 18.7365 10.3958 18.7365 10.1011C18.7365 9.78539 18.9891 9.55382 19.2838 9.55382C19.5785 9.55382 19.831 9.80637 19.831 10.1011C19.8312 10.3958 19.5996 10.6483 19.2838 10.6483ZM20.3784 11.764C20.0627 11.764 19.8311 11.5114 19.8311 11.1956C19.8311 10.8799 20.0837 10.6483 20.3784 10.6483C20.6941 10.6483 20.9256 10.9009 20.9256 11.1956C20.9468 11.5114 20.6941 11.764 20.3784 11.764ZM21.473 10.6483C21.1573 10.6483 20.9258 10.3958 20.9258 10.1011C20.9258 9.78539 21.1783 9.55382 21.473 9.55382C21.7677 9.55382 22.0203 9.80637 22.0203 10.1011C22.0414 10.3958 21.7887 10.6483 21.473 10.6483Z" fill="white"/>
<path d="M14.4213 13.2585C14.1898 13.3426 13.9792 13.4269 13.811 13.5322H8.96957C8.78016 13.4269 8.59075 13.3428 8.35921 13.2585C5.49647 12.2692 5.30691 14.3741 4.46504 16.7527C3.60197 19.1312 3.98094 21.4468 5.26496 21.9099C6.57 22.373 8.29598 20.8153 9.15913 18.4156V18.3946H13.6006V18.4156C14.4425 20.7943 16.1896 22.3519 17.4737 21.9099C18.7787 21.4468 19.1366 19.1524 18.2946 16.7527C17.4527 14.3741 17.2633 12.2692 14.4215 13.2585H14.4213ZM9.09579 16.4159C9.09579 16.4791 9.05365 16.5422 8.96952 16.5422H8.12761V17.3841C8.12761 17.4472 8.08547 17.5104 8.00134 17.5104H7.34884C7.2857 17.5104 7.22256 17.4682 7.22256 17.3841V16.5422H6.38065C6.31752 16.5422 6.25438 16.5001 6.25438 16.4159L6.25423 15.7634C6.25423 15.7003 6.29637 15.6371 6.38051 15.6371H7.22241V14.7952C7.22241 14.7321 7.26456 14.669 7.34869 14.669H8.00119C8.06433 14.669 8.12746 14.7111 8.12746 14.7952V15.6371H8.96937C9.03251 15.6371 9.09565 15.6793 9.09565 15.7634L9.09579 16.4159ZM15.137 14.4372C15.4527 14.4372 15.6843 14.6898 15.6843 14.9845C15.6844 15.2792 15.4529 15.5528 15.137 15.5528C14.8213 15.5528 14.5898 15.3003 14.5898 15.0056C14.5898 14.7109 14.8423 14.4372 15.137 14.4372ZM14.0426 16.6475C13.7269 16.6475 13.4953 16.3949 13.4953 16.1002C13.4953 15.7845 13.7479 15.553 14.0426 15.553C14.3582 15.553 14.5898 15.8055 14.5898 16.1002C14.6108 16.3948 14.3583 16.6475 14.0426 16.6475ZM15.137 17.7419C14.8213 17.7419 14.5898 17.4894 14.5898 17.1947C14.5898 16.879 14.8423 16.6474 15.137 16.6474C15.4527 16.6474 15.6843 16.9 15.6843 17.1947C15.7054 17.4894 15.4529 17.7419 15.137 17.7419ZM16.2528 16.6475C15.9371 16.6475 15.7055 16.3949 15.7055 16.1002C15.7055 15.7845 15.9581 15.553 16.2528 15.553C16.5685 15.553 16.8 15.8055 16.8 16.1002C16.8 16.3948 16.5475 16.6475 16.2528 16.6475Z" fill="white"/>
</svg>
