<svg width="57" height="57" viewBox="0 0 57 57" fill="none" xmlns="http://www.w3.org/2000/svg">
<circle opacity="0.2" cx="28.5" cy="28.5" r="28.5" fill="#EFC11C"/>
<path d="M35.4824 20.5664C37.0195 20.5664 38.2656 19.3203 38.2656 17.7832C38.2656 16.2461 37.0195 15 35.4824 15C33.9453 15 32.6992 16.2461 32.6992 17.7832C32.6992 19.3203 33.9453 20.5664 35.4824 20.5664Z" fill="#EFC11C"/>
<path d="M33.7804 27.4812C34.0999 27.9572 34.5581 28.3234 35.0928 28.53C35.6276 28.7367 36.213 28.7737 36.7696 28.6362L41.3841 27.4826L40.7119 24.7829L36.0974 25.9365L34.1784 23.0601C33.7684 22.4458 33.1321 22.0186 32.4083 21.8716L27.0562 20.8001C26.4575 20.68 25.8358 20.7603 25.2873 21.0286C24.7387 21.297 24.2938 21.7385 24.0212 22.2849L21.7139 26.8995L24.2035 28.145L26.5107 23.529L29.248 24.0773L22.1703 35.8739H16V38.6571H22.1703C23.1417 38.6571 24.0559 38.1394 24.5569 37.3058L27.226 32.8583L34.4191 34.2972L36.9463 41.88L39.5847 40.9991L37.059 33.4177C36.9031 32.9522 36.6273 32.5361 36.2594 32.2112C35.8915 31.8862 35.4444 31.664 34.9633 31.5669L30.7342 30.7222L33.2001 26.6114L33.7804 27.4812Z" fill="#EFC11C"/>
</svg>
