<svg width="29" height="29" viewBox="0 0 29 29" fill="none" xmlns="http://www.w3.org/2000/svg">
<rect width="29" height="29" rx="8" fill="#DC6DFF"/>
<path d="M23.619 13.5238H22.1905V9.71429C22.1905 9.20911 21.9898 8.72463 21.6326 8.36742C21.2754 8.0102 20.7909 7.80952 20.2857 7.80952H16.4762V6.38095C16.4762 5.74948 16.2253 5.14388 15.7788 4.69736C15.3323 4.25085 14.7267 4 14.0952 4C13.4638 4 12.8582 4.25085 12.4117 4.69736C11.9651 5.14388 11.7143 5.74948 11.7143 6.38095V7.80952H7.90476C7.39959 7.80952 6.9151 8.0102 6.55789 8.36742C6.20068 8.72463 6 9.20911 6 9.71429V13.3333H7.42857C8.85714 13.3333 10 14.4762 10 15.9048C10 17.3333 8.85714 18.4762 7.42857 18.4762H6V22.0952C6 22.6004 6.20068 23.0849 6.55789 23.4421C6.9151 23.7993 7.39959 24 7.90476 24H11.5238V22.5714C11.5238 21.1429 12.6667 20 14.0952 20C15.5238 20 16.6667 21.1429 16.6667 22.5714V24H20.2857C20.7909 24 21.2754 23.7993 21.6326 23.4421C21.9898 23.0849 22.1905 22.6004 22.1905 22.0952V18.2857H23.619C24.2505 18.2857 24.8561 18.0349 25.3026 17.5883C25.7492 17.1418 26 16.5362 26 15.9048C26 15.2733 25.7492 14.6677 25.3026 14.2212C24.8561 13.7747 24.2505 13.5238 23.619 13.5238Z" fill="white"/>
</svg>
