<?xml version="1.0" encoding="utf-8"?>
<!-- Generator: Adobe Illustrator 23.1.0, SVG Export Plug-In . SVG Version: 6.00 Build 0)  -->
<svg version="1.1" id="Слой_1" xmlns="http://www.w3.org/2000/svg" xmlns:xlink="http://www.w3.org/1999/xlink" x="0px" y="0px"
	 viewBox="0 0 98 43.3" style="enable-background:new 0 0 98 43.3;" xml:space="preserve">
<style type="text/css">
	.st0{fill:#FFFFFF;}
	.st1{fill:#DC6DFF;}
</style>
<path class="st0" d="M2,12.3c0-5.5,4.5-10,10-10h74c5.5,0,10,4.5,10,10v19c0,5.5-4.5,10-10,10H12c-5.5,0-10-4.5-10-10V12.3z"/>
<path class="st1" d="M15,7.3h13c4.4,0,8,3.6,8,8v13c0,4.4-3.6,8-8,8H15c-4.4,0-8-3.6-8-8v-13C7,10.8,10.6,7.3,15,7.3z"/>
<path class="st0" d="M30.6,20.8h-1.4V17c0-0.5-0.2-1-0.6-1.3c-0.4-0.4-0.8-0.6-1.3-0.6h-3.8v-1.4c0-0.6-0.3-1.2-0.7-1.7
	c-0.4-0.4-1.1-0.7-1.7-0.7c-0.6,0-1.2,0.3-1.7,0.7c-0.4,0.4-0.7,1.1-0.7,1.7v1.4h-3.8c-0.5,0-1,0.2-1.3,0.6C13.2,16,13,16.5,13,17
	v3.6h1.4c1.4,0,2.6,1.1,2.6,2.6c0,1.4-1.1,2.6-2.6,2.6H13v3.6c0,0.5,0.2,1,0.6,1.3c0.4,0.4,0.8,0.6,1.3,0.6h3.6v-1.4
	c0-1.4,1.1-2.6,2.6-2.6c1.4,0,2.6,1.1,2.6,2.6v1.4h3.6c0.5,0,1-0.2,1.3-0.6c0.4-0.4,0.6-0.8,0.6-1.3v-3.8h1.4c0.6,0,1.2-0.3,1.7-0.7
	c0.4-0.4,0.7-1.1,0.7-1.7c0-0.6-0.3-1.2-0.7-1.7C31.9,21,31.3,20.8,30.6,20.8L30.6,20.8z"/>
<path class="st1" d="M52.1,14.4h2c0.3,0,0.5,0,0.8,0c0.3,0,0.6,0.1,0.9,0.2c0.3,0.1,0.6,0.2,0.9,0.4c0.3,0.2,0.5,0.4,0.8,0.7
	c0.2,0.3,0.4,0.7,0.5,1.1c0.1,0.5,0.2,1,0.2,1.7V19c0,0.7-0.1,1.3-0.2,1.8c-0.1,0.5-0.3,0.9-0.5,1.3c-0.2,0.3-0.4,0.6-0.7,0.8
	c-0.3,0.2-0.5,0.4-0.8,0.5c-0.3,0.1-0.6,0.2-0.9,0.2c-0.3,0-0.6,0-0.8,0h-0.2v4.1h-2V14.4z M54.3,22.2c0.4,0,0.7-0.1,0.9-0.2
	c0.3-0.1,0.4-0.3,0.6-0.5c0.2-0.2,0.3-0.5,0.3-0.9c0.1-0.4,0.1-0.8,0.1-1.3v-1.2c0-0.4,0-0.7-0.1-1c-0.1-0.3-0.2-0.5-0.3-0.7
	c-0.1-0.2-0.3-0.3-0.6-0.4c-0.3-0.1-0.6-0.1-0.9-0.1h-0.1v6.3H54.3z M59.7,17h2v8.1c0,0.5,0.1,0.8,0.2,1c0.1,0.2,0.4,0.3,0.6,0.3
	c0.2,0,0.4-0.1,0.6-0.2c0.2-0.1,0.4-0.3,0.5-0.5V17h2v10.8h-1.5l-0.2-1.1h0c-0.2,0.2-0.3,0.5-0.5,0.6c-0.2,0.2-0.4,0.3-0.5,0.4
	c-0.2,0.1-0.4,0.2-0.6,0.2c-0.2,0-0.4,0.1-0.6,0.1c-0.6,0-1.1-0.2-1.5-0.7c-0.3-0.4-0.5-1.1-0.5-2V17z M66.8,26.8l3-8.3h-2.8V17H72
	v1l-3,8.3h3v1.5h-5.1V26.8z M72.3,26.8l3-8.3h-2.8V17h4.9v1l-3,8.3h3v1.5h-5.1V26.8z M78.7,13.5h2v14.2h-2V13.5z M85.3,27.9
	c-0.5,0-0.9-0.1-1.2-0.3c-0.4-0.2-0.7-0.4-0.9-0.8c-0.2-0.4-0.4-0.8-0.6-1.4c-0.1-0.6-0.2-1.3-0.2-2.1v-2c0-0.7,0-1.3,0.1-1.8
	c0.1-0.5,0.2-0.9,0.4-1.2c0.2-0.3,0.4-0.6,0.6-0.8c0.2-0.2,0.4-0.3,0.7-0.4c0.2-0.1,0.5-0.2,0.7-0.2c0.2,0,0.4,0,0.6,0
	c0.4,0,0.7,0.1,1,0.2c0.3,0.1,0.6,0.3,0.9,0.5c0.3,0.3,0.4,0.6,0.6,1c0.2,0.4,0.2,1,0.2,1.6c0,0.2,0,0.4,0,0.7c0,0.2,0,0.4,0,0.7
	c0,0.2,0,0.4-0.1,0.6c0,0.2-0.1,0.4-0.1,0.6h-3.6v1.1c0,0.5,0,0.9,0.1,1.2c0,0.3,0.1,0.6,0.2,0.8c0.1,0.2,0.2,0.3,0.4,0.4
	c0.2,0.1,0.3,0.1,0.6,0.1c0.1,0,0.2,0,0.4-0.1c0.1-0.1,0.2-0.1,0.3-0.3c0.1-0.1,0.2-0.3,0.2-0.5c0.1-0.2,0.1-0.4,0.1-0.7v-0.3h1.6
	v0.4c0,1-0.2,1.8-0.7,2.2C87,27.6,86.3,27.9,85.3,27.9z M86.4,21.4c0-0.1,0-0.1,0-0.2c0-0.1,0-0.2,0-0.3c0-0.1,0-0.2,0-0.3
	c0-0.1,0-0.2,0-0.3c0-0.7-0.1-1.2-0.3-1.5c-0.2-0.3-0.4-0.5-0.7-0.5c-0.2,0-0.3,0-0.5,0.1c-0.1,0.1-0.2,0.2-0.3,0.4
	c-0.1,0.2-0.1,0.4-0.2,0.8c0,0.3-0.1,0.7-0.1,1.2v0.7H86.4z"/>
<path class="st1" d="M12,4.3h74v-4H12V4.3z M94,12.3v19h4v-19H94z M86,39.3H12v4h74V39.3z M4,31.3v-19H0v19H4z M12,39.3
	c-4.4,0-8-3.6-8-8H0c0,6.6,5.4,12,12,12V39.3z M94,31.3c0,4.4-3.6,8-8,8v4c6.6,0,12-5.4,12-12H94z M86,4.3c4.4,0,8,3.6,8,8h4
	c0-6.6-5.4-12-12-12V4.3z M12,0.3c-6.6,0-12,5.4-12,12h4c0-4.4,3.6-8,8-8V0.3z"/>
</svg>
