<svg width="35" height="35" viewBox="0 0 35 35" fill="none" xmlns="http://www.w3.org/2000/svg">
<circle opacity="0.2" cx="17.5" cy="17.5" r="17.5" fill="#F9C071"/>
<path d="M27 20.7116C27 25.3005 23.1883 29 18.5 29C13.8117 29 10 25.2992 10 20.7503C10 18.2294 11.2316 16.1614 12.4159 14.9884C13.0786 14.2752 14.25 14.7263 14.25 15.6587V19.3324C14.25 20.8436 15.4883 22.1038 17.0461 22.1227C18.6284 22.1467 19.9167 20.905 19.9167 19.3754C19.9167 15.5943 12.1648 15.2454 17.6079 7.46488C18.2056 6.61757 19.5625 7.00213 19.5625 8.02474C19.5227 12.4577 27 13.433 27 20.7116Z" fill="#EF9645"/>
</svg>
