<svg width="36" height="38" viewBox="0 0 36 38" fill="none" xmlns="http://www.w3.org/2000/svg">
<path d="M29 5.20142C30.1046 5.20142 31 4.26991 31 3.12085C31 1.97178 30.1046 1.04028 29 1.04028C27.8954 1.04028 27 1.97178 27 3.12085C27 4.26991 27.8954 5.20142 29 5.20142Z" fill="#4289C1"/>
<path d="M33 11.4432C34.6569 11.4432 36 10.046 36 8.32233C36 6.5987 34.6569 5.20142 33 5.20142C31.3431 5.20142 30 6.5987 30 8.32233C30 10.046 31.3431 11.4432 33 11.4432Z" fill="#4289C1"/>
<path d="M33 7.2821C34.6569 7.2821 36 5.88483 36 4.16119C36 2.43756 34.6569 1.04028 33 1.04028C31.3431 1.04028 30 2.43756 30 4.16119C30 5.88483 31.3431 7.2821 33 7.2821Z" fill="#4289C1"/>
<path d="M7 5.20142C8.10457 5.20142 9 4.26991 9 3.12085C9 1.97178 8.10457 1.04028 7 1.04028C5.89543 1.04028 5 1.97178 5 3.12085C5 4.26991 5.89543 5.20142 7 5.20142Z" fill="#4289C1"/>
<path d="M3 11.4432C4.65685 11.4432 6 10.046 6 8.32233C6 6.5987 4.65685 5.20142 3 5.20142C1.34315 5.20142 0 6.5987 0 8.32233C0 10.046 1.34315 11.4432 3 11.4432Z" fill="#4289C1"/>
<path d="M3 7.2821C4.65685 7.2821 6 5.88483 6 4.16119C6 2.43756 4.65685 1.04028 3 1.04028C1.34315 1.04028 0 2.43756 0 4.16119C0 5.88483 1.34315 7.2821 3 7.2821Z" fill="#4289C1"/>
<path d="M36 18.7253C36 29.0668 27.941 37.4506 18 37.4506C8.059 37.4506 0 29.0668 0 18.7253C0 8.38372 8.059 0 18 0C27.941 0 36 8.38372 36 18.7253Z" fill="#FEE7B8"/>
<path d="M30.5 7.2821C31.8807 7.2821 33 6.1177 33 4.68134C33 3.24497 31.8807 2.08057 30.5 2.08057C29.1193 2.08057 28 3.24497 28 4.68134C28 6.1177 29.1193 7.2821 30.5 7.2821Z" fill="#4289C1"/>
<path d="M32 9.36255C33.1046 9.36255 34 8.43105 34 7.28198C34 6.13292 33.1046 5.20142 32 5.20142C30.8954 5.20142 30 6.13292 30 7.28198C30 8.43105 30.8954 9.36255 32 9.36255Z" fill="#4289C1"/>
<path d="M5.5 7.2821C6.88071 7.2821 8 6.1177 8 4.68134C8 3.24497 6.88071 2.08057 5.5 2.08057C4.11929 2.08057 3 3.24497 3 4.68134C3 6.1177 4.11929 7.2821 5.5 7.2821Z" fill="#4289C1"/>
<path d="M4 9.36255C5.10457 9.36255 6 8.43105 6 7.28198C6 6.13292 5.10457 5.20142 4 5.20142C2.89543 5.20142 2 6.13292 2 7.28198C2 8.43105 2.89543 9.36255 4 9.36255Z" fill="#4289C1"/>
<path d="M6.92999 26.0073C9.13913 26.0073 10.93 24.1443 10.93 21.8462C10.93 19.5481 9.13913 17.6851 6.92999 17.6851C4.72085 17.6851 2.92999 19.5481 2.92999 21.8462C2.92999 24.1443 4.72085 26.0073 6.92999 26.0073Z" fill="#FF7892"/>
<path d="M28.93 26.0073C31.1391 26.0073 32.93 24.1443 32.93 21.8462C32.93 19.5481 31.1391 17.6851 28.93 17.6851C26.7209 17.6851 24.93 19.5481 24.93 21.8462C24.93 24.1443 26.7209 26.0073 28.93 26.0073Z" fill="#FF7892"/>
<path d="M27.335 24.581C27.157 24.4136 26.891 24.4032 26.7 24.5509C26.661 24.581 22.778 27.5678 18 27.5678C13.234 27.5678 9.33801 24.581 9.30001 24.5509C9.10901 24.4032 8.84301 24.4156 8.66501 24.581C8.48801 24.7475 8.44801 25.0221 8.57101 25.2344C8.70001 25.458 11.788 32.2491 18 32.2491C24.212 32.2491 27.301 25.458 27.429 25.2344C27.552 25.0211 27.513 24.7475 27.335 24.581V24.581Z" fill="#DA2F47"/>
<path d="M11.5 15.6044C12.8807 15.6044 14 13.9742 14 11.9633C14 9.95242 12.8807 8.32227 11.5 8.32227C10.1193 8.32227 9 9.95242 9 11.9633C9 13.9742 10.1193 15.6044 11.5 15.6044Z" fill="#664500"/>
<path d="M25.5 15.6044C26.8807 15.6044 28 13.9742 28 11.9633C28 9.95242 26.8807 8.32227 25.5 8.32227C24.1193 8.32227 23 9.95242 23 11.9633C23 13.9742 24.1193 15.6044 25.5 15.6044Z" fill="#664500"/>
<path d="M18.5 23.9266C20.433 23.9266 22 22.2965 22 20.2856C22 18.2748 20.433 16.6447 18.5 16.6447C16.567 16.6447 15 18.2748 15 20.2856C15 22.2965 16.567 23.9266 18.5 23.9266Z" fill="#BB1A34"/>
</svg>
