<svg width="29" height="29" viewBox="0 0 29 29" fill="none" xmlns="http://www.w3.org/2000/svg">
<rect width="29" height="29" rx="8" fill="#DC6DFF"/>
<path d="M16.8737 5C12.3894 5 8.74731 8.64209 8.74731 13.1264C8.74731 17.6106 12.3894 21.2527 16.8737 21.2527C21.3579 21.2527 25 17.6106 25 13.1264C25 8.64209 21.3579 5 16.8737 5ZM17.3368 8.26321L19.2947 6.85268C19.3368 6.83168 19.3578 6.78953 19.3788 6.76853C20.4736 7.18955 21.4209 7.88433 22.1578 8.78967C22.1368 8.83182 22.1157 8.85282 22.0947 8.89496L21.3578 11.1897L19.1472 11.9054L17.3368 10.5789L17.3368 8.26321ZM14.3473 6.76839C14.3683 6.78939 14.3895 6.83154 14.4315 6.85254L16.3893 8.26307V10.5789L14.5789 11.8843L12.3684 11.1686L11.6314 8.87372C11.6104 8.83157 11.5893 8.81057 11.5683 8.76842C12.3052 7.88421 13.2735 7.18947 14.3473 6.76845L14.3473 6.76839ZM11.2104 16.7895C11.1683 16.7895 11.1263 16.8105 11.0842 16.8105C10.4737 15.8632 10.0947 14.7474 10.0315 13.5473C10.0737 13.5263 10.0947 13.5263 10.1368 13.4841L12.0946 12.0736L14.2631 12.7894L14.9578 14.9578L13.6315 16.7893L11.2104 16.7895ZM18.6 19.6527C18.5788 19.6947 18.5788 19.7158 18.5788 19.7578C18.0315 19.9053 17.463 19.9894 16.8736 19.9894C16.2841 19.9894 15.7156 19.9053 15.1683 19.7578C15.1683 19.7157 15.1683 19.6737 15.1473 19.6525L14.3894 17.3578L15.7158 15.5473H18.0105L19.3369 17.3578L18.6 19.6527ZM22.5158 16.7895H20.1156L18.7682 14.9579L19.463 12.7895L21.6314 12.0738L23.5892 13.4843C23.6314 13.5053 23.6524 13.5264 23.6945 13.5264C23.6314 14.7265 23.2523 15.8423 22.6419 16.7896C22.5999 16.8105 22.5577 16.7895 22.5157 16.7895L22.5158 16.7895Z" fill="white"/>
<path d="M10.0526 19.9474C9.79997 19.6948 9.39996 19.6948 9.14736 19.9474L7.27367 21.8211C7.02108 22.0737 7.02108 22.4737 7.27367 22.7263C7.39996 22.8526 7.5684 22.9158 7.71585 22.9158C7.86329 22.9158 8.05273 22.8526 8.15803 22.7263L10.0317 20.8526C10.3053 20.6 10.3053 20.2 10.0526 19.9474H10.0526Z" fill="white"/>
<path d="M7.96833 17.2527C7.71574 17.0001 7.31573 17.0001 7.06313 17.2527L5.18944 19.1264C4.93685 19.379 4.93685 19.779 5.18944 20.0316C5.31573 20.1579 5.48417 20.221 5.63162 20.221C5.77906 20.221 5.9685 20.1579 6.07381 20.0316L7.9475 18.1579C8.22094 17.9053 8.22094 17.5053 7.96835 17.2527H7.96833Z" fill="white"/>
<path d="M11.8421 22.0317L9.96837 23.9054C9.71578 24.1579 9.71578 24.558 9.96837 24.8106C10.0947 24.9368 10.2631 25 10.4106 25C10.558 25 10.7474 24.9368 10.8527 24.8106L12.7264 22.9369C12.979 22.6843 12.979 22.2843 12.7264 22.0317C12.4947 21.7791 12.0947 21.7791 11.8421 22.0317H11.8421Z" fill="white"/>
</svg>
