<svg width="57" height="57" viewBox="0 0 57 57" fill="none" xmlns="http://www.w3.org/2000/svg">
<circle opacity="0.2" cx="28.5" cy="28.5" r="28.5" fill="#64CFCB"/>
<path d="M30.9108 17C24.9019 17 20.0215 21.8804 20.0215 27.8893C20.0215 33.8982 24.9019 38.7786 30.9108 38.7786C36.9197 38.7786 41.8001 33.8982 41.8001 27.8893C41.8001 21.8804 36.9197 17 30.9108 17ZM31.5314 21.3727L34.1549 19.4826C34.2114 19.4545 34.2396 19.398 34.2677 19.3698C35.7347 19.934 37.0041 20.865 37.9916 22.0782C37.9635 22.1346 37.9351 22.1628 37.907 22.2193L36.9195 25.2942L33.9573 26.2533L31.5314 24.4758L31.5314 21.3727ZM27.5255 19.3696C27.5537 19.3978 27.582 19.4543 27.6383 19.4824L30.2618 21.3725V24.4758L27.8359 26.225L24.8737 25.2659L23.8862 22.1908C23.8581 22.1343 23.8297 22.1062 23.8016 22.0497C24.7891 20.8648 26.0866 19.9339 27.5255 19.3697L27.5255 19.3696ZM23.3221 32.7979C23.2656 32.7979 23.2093 32.8261 23.1529 32.8261C22.3348 31.5566 21.8269 30.0615 21.7423 28.4534C21.7988 28.4252 21.8269 28.4252 21.8834 28.3687L24.5069 26.4786L27.4126 27.4377L28.3436 30.3434L26.5662 32.7977L23.3221 32.7979ZM33.224 36.6346C33.1957 36.6909 33.1957 36.7192 33.1957 36.7755C32.4623 36.9731 31.7005 37.0858 30.9107 37.0858C30.1208 37.0858 29.359 36.9731 28.6257 36.7755C28.6257 36.719 28.6257 36.6627 28.5975 36.6344L27.5819 33.5595L29.3593 31.1334H32.4342L34.2115 33.5595L33.224 36.6346ZM38.4712 32.7979H35.255L33.4495 30.3437L34.3805 27.438L37.2862 26.4788L39.9097 28.369C39.9661 28.3971 39.9943 28.4254 40.0508 28.4254C39.9661 30.0335 39.4582 31.5287 38.6402 32.7981C38.5839 32.8261 38.5275 32.7979 38.4712 32.7979L38.4712 32.7979Z" fill="#64CFCB"/>
<path d="M21.7705 37.0296C21.4321 36.6911 20.896 36.6911 20.5576 37.0296L18.0468 39.5404C17.7084 39.8788 17.7084 40.4148 18.0468 40.7533C18.2161 40.9226 18.4418 41.0072 18.6393 41.0072C18.8369 41.0072 19.0908 40.9226 19.2319 40.7533L21.7426 38.2426C22.1092 37.9041 22.1092 37.3681 21.7706 37.0296H21.7705Z" fill="#64CFCB"/>
<path d="M18.9776 33.4186C18.6391 33.0802 18.1031 33.0802 17.7646 33.4186L15.2539 35.9294C14.9154 36.2679 14.9154 36.8039 15.2539 37.1424C15.4231 37.3116 15.6488 37.3962 15.8464 37.3962C16.0439 37.3962 16.2978 37.3116 16.4389 37.1424L18.9497 34.6316C19.3161 34.2931 19.3161 33.7571 18.9776 33.4186H18.9776Z" fill="#64CFCB"/>
<path d="M24.1684 39.8225L21.6577 42.3332C21.3192 42.6717 21.3192 43.2077 21.6577 43.5462C21.8269 43.7154 22.0526 43.8 22.2502 43.8C22.4478 43.8 22.7016 43.7154 22.8427 43.5462L25.3535 41.0354C25.6919 40.6969 25.6919 40.1609 25.3535 39.8225C25.0429 39.484 24.5069 39.484 24.1685 39.8225H24.1684Z" fill="#64CFCB"/>
</svg>
