<svg width="29" height="29" viewBox="0 0 29 29" fill="none" xmlns="http://www.w3.org/2000/svg">
<rect width="29" height="29" rx="8" fill="#DC6DFF"/>
<path d="M9.51616 6.99706L11.9941 9.46425L10.4643 10.9941L7.99706 8.51616L5.52987 10.9941L4 9.46425L6.47796 6.99706L4 4.52987L5.52987 3L7.99706 5.47796L10.4643 3L11.9941 4.52987L9.51616 6.99706ZM26 18.5357L24.4701 17.0059L22.0029 19.4838L19.5357 17.0059L18.0059 18.5357L20.4838 21.0029L18.0059 23.4701L19.5357 25L22.0029 22.522L24.4701 25L26 23.4701L23.522 21.0029L26 18.5357ZM24.05 8.42997L20.5808 12.9226L18.8786 11.5544L20.1391 9.9383C18.5313 10.2649 17.0314 10.9906 15.7776 12.0487C14.5237 13.1067 13.5561 14.4632 12.9638 15.9931C13.9015 16.6694 14.5667 17.6585 14.8394 18.782C15.1121 19.9055 14.9743 21.0895 14.4509 22.1203C13.9275 23.1512 13.053 23.9611 11.985 24.4039C10.9171 24.8468 9.72601 24.8934 8.62671 24.5354C7.52741 24.1774 6.59223 23.4383 5.98986 22.4515C5.3875 21.4647 5.1576 20.2951 5.34165 19.1537C5.5257 18.0123 6.11157 16.9743 6.99359 16.2268C7.8756 15.4794 8.99569 15.0717 10.1518 15.0774C10.4341 15.0785 10.7155 15.1074 10.9922 15.1636C11.7386 13.3112 12.9304 11.6715 14.462 10.3898C15.9937 9.10811 17.8178 8.22403 19.7728 7.81587L18.2321 6.6523L19.6004 4.95005L24.05 8.42997ZM12.8453 19.9256C12.8453 19.3929 12.6873 18.8721 12.3913 18.4292C12.0954 17.9862 11.6747 17.641 11.1825 17.4372C10.6904 17.2333 10.1488 17.18 9.62635 17.2839C9.10387 17.3878 8.62395 17.6443 8.24726 18.021C7.87058 18.3977 7.61405 18.8776 7.51013 19.4001C7.4062 19.9226 7.45954 20.4641 7.6634 20.9563C7.86726 21.4485 8.21248 21.8691 8.65542 22.1651C9.09835 22.461 9.6191 22.619 10.1518 22.619C10.8662 22.619 11.5512 22.3352 12.0564 21.8301C12.5615 21.325 12.8453 20.6399 12.8453 19.9256Z" fill="white"/>
</svg>
