<svg width="57" height="57" viewBox="0 0 57 57" fill="none" xmlns="http://www.w3.org/2000/svg">
<circle opacity="0.2" cx="28.5" cy="28.5" r="28.5" fill="#00D1FF"/>
<path d="M21.6375 19.875L24.5125 22.7375L22.7375 24.5125L19.875 21.6375L17.0125 24.5125L15.2375 22.7375L18.1125 19.875L15.2375 17.0125L17.0125 15.2375L19.875 18.1125L22.7375 15.2375L24.5125 17.0125L21.6375 19.875ZM40.7625 33.2625L38.9875 31.4875L36.125 34.3625L33.2625 31.4875L31.4875 33.2625L34.3625 36.125L31.4875 38.9875L33.2625 40.7625L36.125 37.8875L38.9875 40.7625L40.7625 38.9875L37.8875 36.125L40.7625 33.2625ZM38.5 21.5375L34.475 26.75L32.5 25.1625L33.9625 23.2875C32.0971 23.6664 30.357 24.5084 28.9022 25.736C27.4475 26.9636 26.3248 28.5374 25.6375 30.3125C26.7255 31.0971 27.4973 32.2446 27.8137 33.5482C28.1301 34.8517 27.9703 36.2254 27.363 37.4214C26.7558 38.6175 25.7411 39.5572 24.502 40.0709C23.2629 40.5847 21.881 40.6388 20.6056 40.2234C19.3301 39.8081 18.2451 38.9506 17.5462 37.8057C16.8474 36.6607 16.5806 35.3037 16.7942 33.9795C17.0077 32.6552 17.6875 31.4508 18.7108 30.5836C19.7341 29.7164 21.0337 29.2434 22.375 29.25C22.7025 29.2513 23.0291 29.2848 23.35 29.35C24.2161 27.2008 25.5989 25.2984 27.3759 23.8113C29.1529 22.3243 31.2693 21.2986 33.5375 20.825L31.75 19.475L33.3375 17.5L38.5 21.5375ZM25.5 34.875C25.5 34.2569 25.3168 33.6527 24.9734 33.1388C24.63 32.6249 24.142 32.2244 23.5709 31.9879C22.9999 31.7514 22.3716 31.6895 21.7654 31.81C21.1592 31.9306 20.6024 32.2283 20.1653 32.6653C19.7283 33.1023 19.4307 33.6592 19.3101 34.2653C19.1895 34.8715 19.2514 35.4999 19.4879 36.0709C19.7244 36.6419 20.125 37.13 20.6389 37.4733C21.1528 37.8167 21.757 38 22.375 38C23.2038 38 23.9987 37.6708 24.5848 37.0847C25.1708 36.4987 25.5 35.7038 25.5 34.875Z" fill="#00D1FF"/>
</svg>
