<?xml version="1.0" encoding="utf-8"?>
<!-- Generator: Adobe Illustrator 23.1.0, SVG Export Plug-In . SVG Version: 6.00 Build 0)  -->
<svg version="1.1" id="Слой_1" xmlns="http://www.w3.org/2000/svg" xmlns:xlink="http://www.w3.org/1999/xlink" x="0px" y="0px"
	 viewBox="0 0 116 43" style="enable-background:new 0 0 116 43;" xml:space="preserve">
<style type="text/css">
	.st0{fill:#FFFFFF;}
	.st1{fill:#FFCA00;}
</style>
<path class="st0" d="M2,12C2,6.5,6.5,2,12,2h92c5.5,0,10,4.5,10,10v19c0,5.5-4.5,10-10,10H12C6.5,41,2,36.5,2,31V12z"/>
<path class="st1" d="M15,7h13c4.4,0,8,3.6,8,8v13c0,4.4-3.6,8-8,8H15c-4.4,0-8-3.6-8-8V15C7,10.6,10.6,7,15,7z"/>
<path class="st0" d="M21,12l2.2,6.9h7.3l-5.9,4.3l2.2,6.9L21,25.8l-5.9,4.3l2.2-6.9l-5.9-4.3h7.3L21,12z"/>
<path class="st1" d="M53.4,15.8h-2.1v-1.6h6.3v1.6h-2.1v11.8h-2V15.8z M58.8,16.7h1.4l0.2,1.1c0.2-0.4,0.5-0.7,0.8-0.9
	c0.3-0.2,0.6-0.3,0.9-0.3c0.6,0,1,0.2,1.3,0.5c0.3,0.3,0.4,0.9,0.4,1.6c0,0.1,0,0.2,0,0.3c0,0.1,0,0.2-0.1,0.4c0,0.1,0,0.3-0.1,0.4
	c0,0.1-0.1,0.3-0.1,0.4H62v-1c0-0.2,0-0.4,0-0.5c0-0.1-0.1-0.3-0.1-0.3c0-0.1-0.1-0.1-0.2-0.2c-0.1,0-0.1-0.1-0.2-0.1
	c-0.2,0-0.3,0.1-0.4,0.2c-0.1,0.1-0.2,0.2-0.3,0.4v8.9h-2V16.7z M67.5,27.6c-0.5,0-0.9-0.1-1.2-0.3c-0.4-0.2-0.7-0.4-0.9-0.8
	c-0.2-0.4-0.4-0.8-0.6-1.4c-0.1-0.6-0.2-1.3-0.2-2.1v-2c0-0.7,0-1.3,0.1-1.8c0.1-0.5,0.2-0.9,0.4-1.2c0.2-0.3,0.4-0.6,0.6-0.8
	c0.2-0.2,0.4-0.3,0.7-0.4c0.2-0.1,0.5-0.2,0.7-0.2c0.2,0,0.4,0,0.6,0c0.4,0,0.7,0.1,1,0.2c0.3,0.1,0.6,0.3,0.9,0.5
	c0.3,0.3,0.4,0.6,0.6,1c0.2,0.4,0.2,1,0.2,1.6c0,0.2,0,0.4,0,0.7c0,0.2,0,0.4,0,0.7c0,0.2,0,0.4-0.1,0.6c0,0.2-0.1,0.4-0.1,0.6h-3.6
	v1.1c0,0.5,0,0.9,0.1,1.2c0,0.3,0.1,0.6,0.2,0.8c0.1,0.2,0.2,0.3,0.4,0.4c0.2,0.1,0.3,0.1,0.6,0.1c0.1,0,0.2,0,0.4-0.1
	c0.1-0.1,0.2-0.1,0.3-0.3c0.1-0.1,0.2-0.3,0.2-0.5c0.1-0.2,0.1-0.4,0.1-0.7v-0.3h1.6v0.4c0,1-0.2,1.8-0.7,2.2
	C69.2,27.4,68.5,27.6,67.5,27.6z M68.6,21.2c0-0.1,0-0.1,0-0.2c0-0.1,0-0.2,0-0.3c0-0.1,0-0.2,0-0.3c0-0.1,0-0.2,0-0.3
	c0-0.7-0.1-1.2-0.3-1.5c-0.2-0.3-0.4-0.5-0.7-0.5c-0.2,0-0.3,0-0.5,0.1c-0.1,0.1-0.2,0.2-0.3,0.4c-0.1,0.2-0.1,0.4-0.2,0.8
	c0,0.3-0.1,0.7-0.1,1.2v0.7H68.6z M72.1,16.7h1.5l0.2,1.1v0c0.2-0.2,0.3-0.4,0.5-0.6c0.2-0.2,0.4-0.3,0.6-0.4
	c0.2-0.1,0.4-0.2,0.6-0.2c0.2,0,0.4-0.1,0.6-0.1c0.6,0,1.1,0.2,1.5,0.7c0.3,0.4,0.5,1.1,0.5,2v8.2h-2v-8.2c0-0.5-0.1-0.8-0.2-1
	c-0.1-0.2-0.4-0.3-0.6-0.3c-0.2,0-0.4,0.1-0.6,0.2c-0.2,0.1-0.4,0.3-0.5,0.5v8.7h-2V16.7z M82.2,27.6c-0.1,0-0.3,0-0.4,0
	c-0.2,0-0.3-0.1-0.5-0.2c-0.2-0.1-0.3-0.2-0.5-0.4c-0.2-0.2-0.3-0.4-0.4-0.7c-0.1-0.3-0.2-0.7-0.3-1.1c-0.1-0.4-0.1-0.9-0.1-1.6
	v-3.4c0-0.6,0-1.1,0.1-1.5c0.1-0.4,0.2-0.8,0.3-1c0.1-0.3,0.3-0.5,0.5-0.6c0.2-0.2,0.4-0.3,0.5-0.3c0.2-0.1,0.3-0.1,0.5-0.1
	c0.2,0,0.3,0,0.4,0c0.2,0,0.4,0,0.5,0.1c0.2,0.1,0.3,0.1,0.5,0.2c0.1,0.1,0.3,0.2,0.4,0.3c0.1,0.1,0.2,0.2,0.3,0.3l0,0l-0.1-1.4
	v-2.9h2v14.2h-1.5l-0.2-1c-0.1,0.1-0.2,0.3-0.3,0.4c-0.1,0.1-0.3,0.3-0.4,0.4c-0.2,0.1-0.3,0.2-0.5,0.3
	C82.6,27.6,82.4,27.6,82.2,27.6z M82.8,26.1c0.1,0,0.2,0,0.3-0.1c0.1,0,0.2-0.1,0.3-0.2c0.1-0.1,0.2-0.2,0.2-0.3
	c0.1-0.1,0.1-0.2,0.2-0.3v-6.5c-0.1-0.2-0.2-0.4-0.4-0.6c-0.2-0.2-0.4-0.2-0.6-0.2c-0.1,0-0.3,0-0.4,0.1c-0.1,0.1-0.2,0.2-0.3,0.3
	C82,18.6,82,18.8,81.9,19c0,0.3-0.1,0.6-0.1,1v4.1c0,0.4,0,0.7,0.1,1c0.1,0.3,0.1,0.5,0.2,0.6c0.1,0.1,0.2,0.2,0.3,0.3
	C82.6,26.1,82.7,26.1,82.8,26.1z M88.9,15.2c-0.4,0-0.7-0.1-0.9-0.3c-0.2-0.2-0.3-0.5-0.3-1c0-0.2,0-0.4,0.1-0.6
	c0.1-0.2,0.1-0.3,0.2-0.4c0.1-0.1,0.2-0.2,0.4-0.2c0.1,0,0.3-0.1,0.5-0.1c0.4,0,0.7,0.1,0.9,0.3c0.2,0.2,0.3,0.5,0.3,1
	c0,0.4-0.1,0.7-0.3,1C89.6,15.1,89.3,15.2,88.9,15.2z M87.9,16.7h2v10.8h-2V16.7z M91.9,16.7h1.5l0.2,1.1v0c0.2-0.2,0.3-0.4,0.5-0.6
	c0.2-0.2,0.4-0.3,0.6-0.4c0.2-0.1,0.4-0.2,0.6-0.2c0.2,0,0.4-0.1,0.6-0.1c0.6,0,1.1,0.2,1.5,0.7c0.3,0.4,0.5,1.1,0.5,2v8.2h-2v-8.2
	c0-0.5-0.1-0.8-0.2-1c-0.1-0.2-0.4-0.3-0.6-0.3c-0.2,0-0.4,0.1-0.6,0.2c-0.2,0.1-0.4,0.3-0.5,0.5v8.7h-2V16.7z M101.5,28.2
	c0,0.5,0.1,0.8,0.3,1c0.2,0.2,0.4,0.3,0.8,0.3c0.1,0,0.3,0,0.4-0.1c0.1,0,0.3-0.1,0.4-0.2c0.1-0.1,0.2-0.3,0.3-0.5
	c0.1-0.2,0.1-0.5,0.1-0.8v-1.7c-0.2,0.2-0.4,0.4-0.7,0.6c-0.3,0.2-0.6,0.2-1,0.2c-0.1,0-0.3,0-0.4,0c-0.2,0-0.3-0.1-0.5-0.2
	c-0.2-0.1-0.3-0.2-0.5-0.4c-0.2-0.2-0.3-0.4-0.4-0.7c-0.1-0.3-0.2-0.6-0.3-1.1c-0.1-0.4-0.1-1-0.1-1.6v-2.8c0-0.6,0-1.1,0.1-1.5
	c0.1-0.4,0.2-0.8,0.3-1c0.1-0.3,0.3-0.5,0.4-0.6c0.2-0.2,0.3-0.3,0.5-0.4c0.2-0.1,0.3-0.1,0.5-0.2c0.2,0,0.3,0,0.4,0
	c0.3,0,0.5,0,0.7,0.1c0.2,0.1,0.4,0.2,0.5,0.3c0.2,0.1,0.3,0.2,0.4,0.4c0.1,0.1,0.2,0.3,0.3,0.4l0.2-1.1h1.5v10.3
	c0,0.6-0.1,1.1-0.2,1.6c-0.1,0.5-0.3,0.9-0.5,1.2c-0.2,0.3-0.6,0.6-0.9,0.8c-0.4,0.2-0.8,0.3-1.4,0.3c-0.4,0-0.7,0-1-0.1
	s-0.6-0.2-0.8-0.3c-0.2-0.2-0.4-0.4-0.6-0.6c-0.1-0.3-0.2-0.6-0.2-1c0-0.1,0-0.2,0-0.3c0-0.1,0-0.2,0.1-0.4H101.5z M102.6,25.5
	c0.1,0,0.2,0,0.3-0.1c0.1,0,0.2-0.1,0.3-0.2c0.1-0.1,0.2-0.2,0.2-0.3c0.1-0.1,0.1-0.2,0.2-0.3v-5.9c-0.1-0.2-0.2-0.4-0.4-0.6
	c-0.2-0.2-0.4-0.2-0.6-0.2c-0.1,0-0.3,0-0.4,0.1c-0.1,0.1-0.2,0.2-0.3,0.3c-0.1,0.1-0.2,0.3-0.2,0.6c0,0.3-0.1,0.6-0.1,1v3.5
	c0,0.4,0,0.7,0.1,1c0.1,0.3,0.1,0.5,0.2,0.6c0.1,0.1,0.2,0.2,0.3,0.3C102.3,25.5,102.5,25.5,102.6,25.5z"/>
<path class="st1" d="M12,4h92V0H12V4z M112,12v19h4V12H112z M104,39H12v4h92V39z M4,31V12H0v19H4z M12,39c-4.4,0-8-3.6-8-8H0
	c0,6.6,5.4,12,12,12V39z M112,31c0,4.4-3.6,8-8,8v4c6.6,0,12-5.4,12-12H112z M104,4c4.4,0,8,3.6,8,8h4c0-6.6-5.4-12-12-12V4z M12,0
	C5.4,0,0,5.4,0,12h4c0-4.4,3.6-8,8-8V0z"/>
</svg>
