<svg width="29" height="29" viewBox="0 0 29 29" fill="none" xmlns="http://www.w3.org/2000/svg">
<rect width="29" height="29" rx="8" fill="#DC6DFF"/>
<path d="M14 25C19.5228 25 24 20.5228 24 15C24 9.47715 19.5228 5 14 5C8.47715 5 4 9.47715 4 15C4 20.5228 8.47715 25 14 25Z" stroke="white" stroke-width="3" stroke-linecap="round" stroke-linejoin="round"/>
<path d="M14 5C13.4106 5 12.8454 5.23413 12.4286 5.65087C12.0119 6.06762 11.7777 6.63285 11.7777 7.22222C11.7777 7.81159 12.0119 8.37682 12.4286 8.79357C12.8454 9.21032 13.4106 9.44444 14 9.44444M10.6666 12.7778H10.6777H10.6666ZM17.3333 12.7778H17.3444H17.3333ZM11.2222 18.3333C11.5843 18.7029 12.0165 18.9965 12.4934 19.1969C12.9704 19.3973 13.4826 19.5006 14 19.5006C14.5173 19.5006 15.0295 19.3973 15.5065 19.1969C15.9835 18.9965 16.4157 18.7029 16.7777 18.3333H11.2222Z" stroke="white" stroke-width="3" stroke-linecap="round" stroke-linejoin="round"/>
</svg>
