<?xml version="1.0" encoding="utf-8"?>
<!-- Generator: Adobe Illustrator 23.1.0, SVG Export Plug-In . SVG Version: 6.00 Build 0)  -->
<svg version="1.1" id="Слой_1" xmlns="http://www.w3.org/2000/svg" xmlns:xlink="http://www.w3.org/1999/xlink" x="0px" y="0px"
	 viewBox="0 0 129 43" style="enable-background:new 0 0 129 43;" xml:space="preserve">
<style type="text/css">
	.st0{fill:#FFFFFF;}
	.st1{fill:#DC6DFF;}
	.st2{fill:none;stroke:#FFFFFF;stroke-width:3;stroke-linecap:round;stroke-linejoin:round;}
</style>
<path class="st0" d="M2,12C2,6.5,6.5,2,12,2h105c5.5,0,10,4.5,10,10v19c0,5.5-4.5,10-10,10H12C6.5,41,2,36.5,2,31V12z"/>
<path class="st1" d="M15,7h13c4.4,0,8,3.6,8,8v13c0,4.4-3.6,8-8,8H15c-4.4,0-8-3.6-8-8V15C7,10.6,10.6,7,15,7z"/>
<path class="st2" d="M21,32c5.5,0,10-4.5,10-10s-4.5-10-10-10s-10,4.5-10,10S15.5,32,21,32z"/>
<path class="st2" d="M21,12c-0.6,0-1.2,0.2-1.6,0.7c-0.4,0.4-0.7,1-0.7,1.6c0,0.6,0.2,1.2,0.7,1.6c0.4,0.4,1,0.7,1.6,0.7 M17.7,19.8
	L17.7,19.8L17.7,19.8z M24.3,19.8L24.3,19.8L24.3,19.8z M18.2,25.3c0.4,0.4,0.8,0.7,1.3,0.9c0.5,0.2,1,0.3,1.5,0.3
	c0.5,0,1-0.1,1.5-0.3c0.5-0.2,0.9-0.5,1.3-0.9H18.2z"/>
<path class="st1" d="M53.7,23.1L51,14.2h2l1.6,6.4h0.1l1.6-6.4h2l-2.7,8.9v4.4h-2V23.1z M62.2,27.6c-0.2,0-0.5,0-0.7-0.1
	c-0.2,0-0.5-0.1-0.7-0.2c-0.2-0.1-0.4-0.3-0.6-0.5c-0.2-0.2-0.4-0.5-0.5-0.8c-0.1-0.3-0.3-0.8-0.3-1.3c-0.1-0.5-0.1-1.1-0.1-1.8
	v-1.7c0-0.7,0-1.3,0.1-1.8c0.1-0.5,0.2-0.9,0.4-1.3c0.2-0.3,0.3-0.6,0.5-0.8c0.2-0.2,0.4-0.4,0.6-0.5c0.2-0.1,0.5-0.2,0.7-0.2
	c0.2,0,0.5-0.1,0.7-0.1c0.2,0,0.4,0,0.7,0c0.2,0,0.5,0.1,0.7,0.2c0.2,0.1,0.4,0.3,0.6,0.5c0.2,0.2,0.4,0.5,0.5,0.8
	c0.2,0.3,0.3,0.8,0.4,1.3c0.1,0.5,0.1,1.1,0.1,1.8v1.7c0,0.7,0,1.3-0.1,1.8c-0.1,0.5-0.2,0.9-0.4,1.3c-0.2,0.3-0.3,0.6-0.5,0.9
	c-0.2,0.2-0.4,0.4-0.6,0.5c-0.2,0.1-0.4,0.2-0.7,0.2C62.7,27.6,62.4,27.6,62.2,27.6z M62.2,26.1c0.2,0,0.3,0,0.4-0.1
	c0.1-0.1,0.2-0.2,0.3-0.5c0.1-0.2,0.1-0.5,0.2-0.8c0-0.3,0.1-0.8,0.1-1.3v-2.6c0-0.5,0-0.9-0.1-1.3c0-0.3-0.1-0.6-0.2-0.8
	c-0.1-0.2-0.2-0.4-0.3-0.5c-0.1-0.1-0.3-0.1-0.4-0.1c-0.2,0-0.3,0-0.5,0.1c-0.1,0.1-0.2,0.2-0.3,0.5c-0.1,0.2-0.1,0.5-0.2,0.8
	c0,0.3-0.1,0.8-0.1,1.3v2.6c0,0.5,0,0.9,0.1,1.3c0,0.3,0.1,0.6,0.2,0.8c0.1,0.2,0.2,0.4,0.3,0.5C61.9,26,62.1,26.1,62.2,26.1z
	 M67,16.7h2v8.1c0,0.5,0.1,0.8,0.2,1c0.1,0.2,0.4,0.3,0.6,0.3c0.2,0,0.4-0.1,0.6-0.2c0.2-0.1,0.4-0.3,0.5-0.5v-8.7h2v10.8h-1.5
	l-0.2-1.1h0c-0.2,0.2-0.3,0.5-0.5,0.6c-0.2,0.2-0.4,0.3-0.5,0.4c-0.2,0.1-0.4,0.2-0.6,0.2s-0.4,0.1-0.6,0.1c-0.6,0-1.1-0.2-1.5-0.7
	c-0.3-0.4-0.5-1.1-0.5-2V16.7z M74.9,16.7h1.5l0.2,1.1v0c0.2-0.2,0.3-0.4,0.5-0.6c0.2-0.2,0.4-0.3,0.6-0.4c0.2-0.1,0.4-0.2,0.6-0.2
	c0.2,0,0.4-0.1,0.6-0.1c0.6,0,1.1,0.2,1.5,0.7c0.3,0.4,0.5,1.1,0.5,2v8.2h-2v-8.2c0-0.5-0.1-0.8-0.2-1c-0.1-0.2-0.4-0.3-0.6-0.3
	c-0.2,0-0.4,0.1-0.6,0.2c-0.2,0.1-0.4,0.3-0.5,0.5v8.7h-2V16.7z M84.5,28.2c0,0.5,0.1,0.8,0.3,1c0.2,0.2,0.4,0.3,0.8,0.3
	c0.1,0,0.3,0,0.4-0.1c0.1,0,0.3-0.1,0.4-0.2c0.1-0.1,0.2-0.3,0.3-0.5c0.1-0.2,0.1-0.5,0.1-0.8v-1.7c-0.2,0.2-0.4,0.4-0.7,0.6
	C85.7,27,85.4,27,85,27c-0.1,0-0.3,0-0.4,0c-0.2,0-0.3-0.1-0.5-0.2c-0.2-0.1-0.3-0.2-0.5-0.4c-0.2-0.2-0.3-0.4-0.4-0.7
	c-0.1-0.3-0.2-0.6-0.3-1.1c-0.1-0.4-0.1-1-0.1-1.6v-2.8c0-0.6,0-1.1,0.1-1.5c0.1-0.4,0.2-0.8,0.3-1c0.1-0.3,0.3-0.5,0.4-0.6
	c0.2-0.2,0.3-0.3,0.5-0.4c0.2-0.1,0.3-0.1,0.5-0.2c0.2,0,0.3,0,0.4,0c0.3,0,0.5,0,0.7,0.1c0.2,0.1,0.4,0.2,0.5,0.3
	c0.2,0.1,0.3,0.2,0.4,0.4c0.1,0.1,0.2,0.3,0.3,0.4l0.2-1.1h1.5v10.3c0,0.6-0.1,1.1-0.2,1.6c-0.1,0.5-0.3,0.9-0.5,1.2
	c-0.2,0.3-0.6,0.6-0.9,0.8c-0.4,0.2-0.8,0.3-1.4,0.3c-0.4,0-0.7,0-1-0.1s-0.6-0.2-0.8-0.3c-0.2-0.2-0.4-0.4-0.6-0.6
	c-0.1-0.3-0.2-0.6-0.2-1c0-0.1,0-0.2,0-0.3c0-0.1,0-0.2,0.1-0.4H84.5z M85.6,25.5c0.1,0,0.2,0,0.3-0.1c0.1,0,0.2-0.1,0.3-0.2
	c0.1-0.1,0.2-0.2,0.2-0.3c0.1-0.1,0.1-0.2,0.2-0.3v-5.9c-0.1-0.2-0.2-0.4-0.4-0.6c-0.2-0.2-0.4-0.2-0.6-0.2c-0.1,0-0.3,0-0.4,0.1
	c-0.1,0.1-0.2,0.2-0.3,0.3c-0.1,0.1-0.2,0.3-0.2,0.6c0,0.3-0.1,0.6-0.1,1v3.5c0,0.4,0,0.7,0.1,1c0.1,0.3,0.1,0.5,0.2,0.6
	c0.1,0.1,0.2,0.2,0.3,0.3C85.3,25.5,85.5,25.5,85.6,25.5z M94.2,14.2h2V20h0.1l2.3-5.8h2L98,20.4l2.9,7.1h-2.2l-2.5-6.4h-0.1v6.4h-2
	V14.2z M103,15.2c-0.4,0-0.7-0.1-0.9-0.3c-0.2-0.2-0.3-0.5-0.3-1c0-0.2,0-0.4,0.1-0.6c0.1-0.2,0.1-0.3,0.2-0.4
	c0.1-0.1,0.2-0.2,0.4-0.2c0.1,0,0.3-0.1,0.5-0.1c0.4,0,0.7,0.1,0.9,0.3c0.2,0.2,0.3,0.5,0.3,1c0,0.4-0.1,0.7-0.3,1
	C103.7,15.1,103.4,15.2,103,15.2z M102,16.7h2v10.8h-2V16.7z M108.1,27.6c-0.1,0-0.3,0-0.4,0c-0.2,0-0.3-0.1-0.5-0.2
	c-0.2-0.1-0.3-0.2-0.5-0.4c-0.2-0.2-0.3-0.4-0.4-0.7c-0.1-0.3-0.2-0.7-0.3-1.1c-0.1-0.4-0.1-0.9-0.1-1.6v-3.4c0-0.6,0-1.1,0.1-1.5
	c0.1-0.4,0.2-0.8,0.3-1c0.1-0.3,0.3-0.5,0.5-0.6c0.2-0.2,0.4-0.3,0.5-0.3c0.2-0.1,0.3-0.1,0.5-0.1c0.2,0,0.3,0,0.4,0
	c0.2,0,0.4,0,0.5,0.1c0.2,0.1,0.3,0.1,0.5,0.2c0.1,0.1,0.3,0.2,0.4,0.3c0.1,0.1,0.2,0.2,0.3,0.3l0,0l-0.1-1.4v-2.9h2v14.2h-1.5
	l-0.2-1c-0.1,0.1-0.2,0.3-0.3,0.4c-0.1,0.1-0.3,0.3-0.4,0.4c-0.2,0.1-0.3,0.2-0.5,0.3C108.6,27.6,108.3,27.6,108.1,27.6z
	 M108.8,26.1c0.1,0,0.2,0,0.3-0.1c0.1,0,0.2-0.1,0.3-0.2c0.1-0.1,0.2-0.2,0.2-0.3c0.1-0.1,0.1-0.2,0.2-0.3v-6.5
	c-0.1-0.2-0.2-0.4-0.4-0.6c-0.2-0.2-0.4-0.2-0.6-0.2c-0.1,0-0.3,0-0.4,0.1c-0.1,0.1-0.2,0.2-0.3,0.3c-0.1,0.1-0.2,0.3-0.2,0.6
	c0,0.3-0.1,0.6-0.1,1v4.1c0,0.4,0,0.7,0.1,1c0.1,0.3,0.1,0.5,0.2,0.6c0.1,0.1,0.2,0.2,0.3,0.3C108.5,26.1,108.6,26.1,108.8,26.1z
	 M113.3,25.3c0-0.2,0-0.5,0.1-0.7c0-0.2,0.1-0.4,0.1-0.5h1.4c0,0.4,0,0.7,0.1,1c0,0.3,0.1,0.5,0.2,0.6c0.1,0.2,0.2,0.3,0.4,0.3
	c0.2,0.1,0.3,0.1,0.5,0.1c0.3,0,0.5-0.1,0.6-0.3c0.1-0.2,0.2-0.4,0.2-0.6c0-0.1,0-0.2,0-0.3c0-0.1-0.1-0.2-0.1-0.3
	c-0.1-0.1-0.1-0.2-0.2-0.3c-0.1-0.1-0.2-0.2-0.3-0.4l-1.4-1.7c-0.2-0.2-0.4-0.5-0.5-0.7c-0.2-0.2-0.3-0.5-0.5-0.8
	c-0.1-0.3-0.2-0.5-0.3-0.8c-0.1-0.3-0.1-0.6-0.1-0.9c0-0.4,0.1-0.8,0.2-1.1c0.1-0.3,0.3-0.6,0.6-0.8c0.2-0.2,0.5-0.4,0.8-0.5
	c0.3-0.1,0.7-0.1,1-0.1c0.4,0,0.7,0,1.1,0.1c0.3,0.1,0.6,0.2,0.8,0.4s0.4,0.4,0.5,0.7c0.1,0.3,0.2,0.6,0.2,1c0,0.3,0,0.5-0.1,0.7
	c0,0.2-0.1,0.4-0.1,0.6H117c0-0.4,0-0.7,0-0.9c0-0.3-0.1-0.5-0.1-0.7c-0.1-0.2-0.2-0.3-0.3-0.4c-0.1-0.1-0.3-0.1-0.5-0.1
	c-0.2,0-0.3,0-0.4,0.1c-0.1,0.1-0.2,0.1-0.3,0.2c-0.1,0.1-0.1,0.2-0.1,0.3c0,0.1,0,0.2,0,0.3c0,0.3,0.1,0.5,0.2,0.7
	c0.1,0.2,0.3,0.4,0.5,0.7l1.6,1.9c0.1,0.1,0.2,0.3,0.4,0.5c0.2,0.2,0.3,0.4,0.4,0.7c0.1,0.2,0.3,0.5,0.3,0.8
	c0.1,0.3,0.1,0.6,0.1,0.9c0,0.4-0.1,0.7-0.2,1c-0.1,0.3-0.3,0.6-0.5,0.8c-0.2,0.2-0.5,0.4-0.9,0.5c-0.3,0.1-0.7,0.2-1.2,0.2
	c-0.4,0-0.7,0-1-0.1c-0.3-0.1-0.6-0.2-0.8-0.4c-0.2-0.2-0.4-0.4-0.6-0.7C113.4,26.1,113.3,25.7,113.3,25.3z"/>
<path class="st1" d="M12,4h105V0H12V4z M125,12v19h4V12H125z M117,39H12v4h105V39z M4,31V12H0v19H4z M12,39c-4.4,0-8-3.6-8-8H0
	c0,6.6,5.4,12,12,12V39z M125,31c0,4.4-3.6,8-8,8v4c6.6,0,12-5.4,12-12H125z M117,4c4.4,0,8,3.6,8,8h4c0-6.6-5.4-12-12-12V4z M12,0
	C5.4,0,0,5.4,0,12h4c0-4.4,3.6-8,8-8V0z"/>
</svg>
